<svg width="170" height="77" viewBox="0 0 170 77" fill="none" xmlns="http://www.w3.org/2000/svg">
<path d="M16.1214 0.412598H20.8399L4.2466 28.8807V37.2953L-1.71661e-05 29.3525L16.1214 0.412598Z" fill="white"/>
<path d="M16.1214 0.412598H20.8399L4.2466 28.8807V37.2953L-1.71661e-05 29.3525L16.1214 0.412598Z" fill="white"/>
<path d="M25.2048 0.160156H29.8909L13.5833 28.7454V53.3943L9.36576 46.2714V28.7454L25.2048 0.160156Z" fill="white"/>
<path d="M25.2048 0.160156H29.8909L13.5833 28.7454V53.3943L9.36576 46.2714V28.7454L25.2048 0.160156Z" fill="white"/>
<path d="M46.0791 12.5337L55.24 29.0938H50.5421L43.6519 16.7227L46.0791 12.5337Z" fill="white"/>
<path d="M46.0791 12.5337L55.24 29.0938H50.5421L43.6519 16.7227L46.0791 12.5337Z" fill="white"/>
<path d="M41.4595 20.7944L45.9149 28.9454H41.7013L39.1454 24.5936L41.4595 20.7944Z" fill="white"/>
<path d="M41.4595 20.7944L45.9149 28.9454H41.7013L39.1454 24.5936L41.4595 20.7944Z" fill="white"/>
<path d="M50.6125 4.35156L64.4096 29.0811H59.908L48.4494 8.26854L50.6125 4.35156Z" fill="white"/>
<path d="M50.6125 4.35156L64.4096 29.0811H59.908L48.4494 8.26854L50.6125 4.35156Z" fill="white"/>
<path d="M44.0798 0H48.4992L32.1608 29.3288V58.122H27.6075V29.3288L44.0798 0Z" fill="white"/>
<path d="M44.0798 0H48.4992L32.1608 29.3288V58.122H27.6075V29.3288L44.0798 0Z" fill="white"/>
<path d="M34.726 0H39.1454L22.807 29.3288V58.122H18.2536V29.3288L34.726 0Z" fill="white"/>
<path d="M34.726 0H39.1454L22.807 29.3288V58.122H18.2536V29.3288L34.726 0Z" fill="white"/>
<path d="M54.7994 50.5815V54.4924C53.235 55.3047 51.1893 55.9063 48.5119 55.9063C41.3219 55.9063 37.2606 51.5442 37.2606 44.4144C37.2606 36.9838 41.2918 32.5916 48.3615 32.5916C51.2495 32.5916 53.6863 33.3136 54.9197 34.1258L54.7392 38.2473C53.5058 37.1943 51.0088 36.6228 48.8729 36.6228C43.9693 36.6228 41.9537 39.6311 41.9537 44.1436C41.9537 49.1977 44.5108 51.845 49.0835 51.845C50.7682 51.845 52.8439 51.484 54.7994 50.5815ZM61.3188 55.4551H56.716L64.7183 33.0428H69.7723L77.7144 55.4551H73.0815L71.6976 51.2434H62.7027L61.3188 55.4551ZM63.8759 47.6333H70.5244L67.2152 37.5553L63.8759 47.6333ZM85.0179 55.4551H80.4151V33.0428H87.6652C93.351 33.0428 96.3293 35.63 96.3293 40.5938C96.3293 45.708 93.0201 48.3854 87.4546 48.3854H85.0179V55.4551ZM87.6652 36.5927H85.0179V44.8356H87.4546C90.2223 44.8356 91.6663 43.3916 91.6663 40.5938C91.6663 37.9464 90.2825 36.5927 87.6652 36.5927ZM113.67 55.4551H99.9518V33.0428H113.67V36.6528H104.555V42.8801H112.406V46.4902H104.555V51.845H113.67V55.4551ZM130.993 55.4551H117.726V33.0428H122.329V51.845H130.993V55.4551ZM147.415 55.4551H134.148V33.0428H138.751V51.845H147.415V55.4551ZM153.068 55.4551H148.465L156.467 33.0428H161.521L169.463 55.4551H164.831L163.447 51.2434H154.452L153.068 55.4551ZM155.625 47.6333H162.273L158.964 37.5553L155.625 47.6333Z" fill="white"/>
<path d="M22.5181 72.1221H21.809L19.6312 68.5388H17.2128V72.1221H16.5923V63.2588H19.7325C21.3912 63.2588 22.5561 64.3097 22.5561 65.8924C22.5561 67.2726 21.6444 68.2602 20.3023 68.4628L22.5181 72.1221ZM19.7072 63.7906H17.2128V68.007H19.7072C20.986 68.007 21.8977 67.1966 21.8977 65.8924C21.8977 64.5883 20.9987 63.7906 19.7072 63.7906ZM37.721 72.1221H32.3524V63.2588H37.5944L37.6957 63.8159H32.9728V67.3106H37.1006V67.8677H32.9728V71.5649H37.8223L37.721 72.1221ZM47.0637 72.1221H46.4306L50.0266 63.2588H50.5457L54.1417 72.1221H53.496L52.445 69.5897H48.1147L47.0637 72.1221ZM48.3299 69.0452H52.2298L50.2798 64.1198L48.3299 69.0452ZM68.5932 72.1221H63.4398V63.2588H64.0602V71.5649H68.6945L68.5932 72.1221ZM93.9729 72.1221H88.6043V63.2588H93.8463L93.9476 63.8159H89.2247V67.3106H93.3525V67.8677H89.2247V71.5649H94.0742L93.9729 72.1221ZM108.352 69.9189C108.352 71.2484 107.327 72.2487 105.655 72.2487C104.693 72.2487 103.718 72.0714 102.642 71.4003L102.895 70.8812C103.971 71.5523 104.908 71.6916 105.642 71.6916C106.896 71.6916 107.706 70.9825 107.706 69.9062C107.706 69.0706 107.187 68.4628 105.984 68.0323L104.895 67.6524C103.503 67.1713 102.819 66.4369 102.819 65.3986C102.819 64.1071 103.819 63.1321 105.453 63.1321C106.326 63.1321 107.289 63.2841 108.276 63.9045L108.023 64.4237C107.023 63.7906 106.149 63.6893 105.453 63.6893C104.262 63.6893 103.465 64.3603 103.465 65.386C103.465 66.1203 103.984 66.6901 105.085 67.07L106.174 67.4498C107.681 67.9816 108.352 68.754 108.352 69.9189ZM123.81 63.8159H120.695V72.1221H120.075V63.8159H116.973L117.074 63.2588H123.709L123.81 63.8159ZM131.88 72.1221H131.247L134.843 63.2588H135.362L138.958 72.1221H138.313L137.262 69.5897H132.931L131.88 72.1221ZM133.147 69.0452H137.047L135.097 64.1198L133.147 69.0452ZM153.253 63.8159H150.138V72.1221H149.518V63.8159H146.415L146.517 63.2588H153.152L153.253 63.8159ZM167.963 72.1221H162.595V63.2588H167.837L167.938 63.8159H163.215V67.3106H167.343V67.8677H163.215V71.5649H168.065L167.963 72.1221Z" fill="white"/>
</svg>
