<svg width="170" height="77" viewBox="0 0 170 77" fill="none" xmlns="http://www.w3.org/2000/svg">
<path d="M16.1214 0.842178H20.8399L4.2466 29.3103V37.7249L-1.71661e-05 29.7821L16.1214 0.842178Z" fill="black"/>
<path d="M16.1214 0.842178H20.8399L4.2466 29.3103V37.7249L-1.71661e-05 29.7821L16.1214 0.842178Z" fill="#6E00FF"/>
<path d="M25.2048 0.589539H29.8909L13.5833 29.1748V53.8237L9.36576 46.7008V29.1748L25.2048 0.589539Z" fill="black"/>
<path d="M25.2048 0.589539H29.8909L13.5833 29.1748V53.8237L9.36576 46.7008V29.1748L25.2048 0.589539Z" fill="#6E00FF"/>
<path d="M46.0791 12.9634L55.24 29.5235H50.5421L43.6519 17.1523L46.0791 12.9634Z" fill="black"/>
<path d="M46.0791 12.9634L55.24 29.5235H50.5421L43.6519 17.1523L46.0791 12.9634Z" fill="#6E00FF"/>
<path d="M41.4595 21.2237L45.9149 29.3747H41.7013L39.1454 25.0229L41.4595 21.2237Z" fill="black"/>
<path d="M41.4595 21.2237L45.9149 29.3747H41.7013L39.1454 25.0229L41.4595 21.2237Z" fill="#6E00FF"/>
<path d="M50.6125 4.78123L64.4096 29.5108H59.908L48.4494 8.69821L50.6125 4.78123Z" fill="black"/>
<path d="M50.6125 4.78123L64.4096 29.5108H59.908L48.4494 8.69821L50.6125 4.78123Z" fill="#6E00FF"/>
<path d="M44.0798 0.429443H48.4992L32.1608 29.7583V58.5514H27.6075V29.7583L44.0798 0.429443Z" fill="black"/>
<path d="M44.0798 0.429443H48.4992L32.1608 29.7583V58.5514H27.6075V29.7583L44.0798 0.429443Z" fill="#6E00FF"/>
<path d="M34.726 0.429443H39.1454L22.807 29.7583V58.5514H18.2536V29.7583L34.726 0.429443Z" fill="black"/>
<path d="M34.726 0.429443H39.1454L22.807 29.7583V58.5514H18.2536V29.7583L34.726 0.429443Z" fill="#6E00FF"/>
<path d="M54.7994 51.0109V54.9218C53.235 55.734 51.1893 56.3357 48.5119 56.3357C41.3219 56.3357 37.2606 51.9736 37.2606 44.8438C37.2606 37.4131 41.2918 33.0209 48.3615 33.0209C51.2495 33.0209 53.6863 33.7429 54.9197 34.5552L54.7392 38.6766C53.5058 37.6237 51.0088 37.0521 48.8729 37.0521C43.9693 37.0521 41.9537 40.0605 41.9537 44.573C41.9537 49.6271 44.5108 52.2744 49.0835 52.2744C50.7682 52.2744 52.8439 51.9134 54.7994 51.0109ZM61.3188 55.8844H56.716L64.7183 33.4722H69.7723L77.7144 55.8844H73.0815L71.6976 51.6727H62.7027L61.3188 55.8844ZM63.8759 48.0627H70.5244L67.2152 37.9847L63.8759 48.0627ZM85.0179 55.8844H80.4151V33.4722H87.6652C93.351 33.4722 96.3293 36.0594 96.3293 41.0232C96.3293 46.1374 93.0201 48.8148 87.4546 48.8148H85.0179V55.8844ZM87.6652 37.022H85.0179V45.2649H87.4546C90.2223 45.2649 91.6663 43.8209 91.6663 41.0232C91.6663 38.3758 90.2825 37.022 87.6652 37.022ZM113.67 55.8844H99.9518V33.4722H113.67V37.0822H104.555V43.3095H112.406V46.9195H104.555V52.2744H113.67V55.8844ZM130.993 55.8844H117.726V33.4722H122.329V52.2744H130.993V55.8844ZM147.415 55.8844H134.148V33.4722H138.751V52.2744H147.415V55.8844ZM153.068 55.8844H148.465L156.467 33.4722H161.521L169.463 55.8844H164.831L163.447 51.6727H154.452L153.068 55.8844ZM155.625 48.0627H162.273L158.964 37.9847L155.625 48.0627Z" fill="#010101"/>
<path d="M22.5181 72.5515H21.809L19.6312 68.9682H17.2128V72.5515H16.5923V63.6882H19.7325C21.3912 63.6882 22.5561 64.7391 22.5561 66.3219C22.5561 67.702 21.6444 68.6896 20.3023 68.8922L22.5181 72.5515ZM19.7072 64.22H17.2128V68.4364H19.7072C20.986 68.4364 21.8977 67.626 21.8977 66.3219C21.8977 65.0177 20.9987 64.22 19.7072 64.22ZM37.721 72.5515H32.3524V63.6882H37.5944L37.6957 64.2453H32.9728V67.74H37.1006V68.2971H32.9728V71.9944H37.8223L37.721 72.5515ZM47.0637 72.5515H46.4306L50.0266 63.6882H50.5457L54.1417 72.5515H53.496L52.445 70.0191H48.1147L47.0637 72.5515ZM48.3299 69.4747H52.2298L50.2798 64.5492L48.3299 69.4747ZM68.5932 72.5515H63.4398V63.6882H64.0602V71.9944H68.6945L68.5932 72.5515ZM93.9729 72.5515H88.6043V63.6882H93.8463L93.9476 64.2453H89.2247V67.74H93.3525V68.2971H89.2247V71.9944H94.0742L93.9729 72.5515ZM108.352 70.3483C108.352 71.6778 107.327 72.6781 105.655 72.6781C104.693 72.6781 103.718 72.5009 102.642 71.8298L102.895 71.3106C103.971 71.9817 104.908 72.121 105.642 72.121C106.896 72.121 107.706 71.4119 107.706 70.3357C107.706 69.5 107.187 68.8922 105.984 68.4617L104.895 68.0819C103.503 67.6007 102.819 66.8663 102.819 65.8281C102.819 64.5365 103.819 63.5616 105.453 63.5616C106.326 63.5616 107.289 63.7135 108.276 64.334L108.023 64.8531C107.023 64.22 106.149 64.1187 105.453 64.1187C104.262 64.1187 103.465 64.7898 103.465 65.8154C103.465 66.5498 103.984 67.1196 105.085 67.4994L106.174 67.8793C107.681 68.4111 108.352 69.1835 108.352 70.3483ZM123.81 64.2453H120.695V72.5515H120.075V64.2453H116.973L117.074 63.6882H123.709L123.81 64.2453ZM131.88 72.5515H131.247L134.843 63.6882H135.362L138.958 72.5515H138.313L137.262 70.0191H132.931L131.88 72.5515ZM133.147 69.4747H137.047L135.097 64.5492L133.147 69.4747ZM153.253 64.2453H150.138V72.5515H149.518V64.2453H146.415L146.517 63.6882H153.152L153.253 64.2453ZM167.963 72.5515H162.595V63.6882H167.837L167.938 64.2453H163.215V67.74H167.343V68.2971H163.215V71.9944H168.065L167.963 72.5515Z" fill="#487A67"/>
</svg>
