<svg width="1440" height="103" viewBox="0 0 1440 103" fill="none" xmlns="http://www.w3.org/2000/svg">
<g filter="url(#filter0_d_157_277)">
<rect x="-394" width="2171" height="94" fill="white"/>
<rect x="-393.75" y="0.25" width="2170.5" height="93.5" stroke="#A9A7A7" stroke-width="0.5"/>
</g>
<g clip-path="url(#clip0_157_277)">
<path d="M28.0511 49.0909C28.0511 51.392 27.6357 53.3807 26.8047 55.0568C25.9737 56.733 24.8338 58.0256 23.3849 58.9347C21.9361 59.8438 20.2813 60.2983 18.4205 60.2983C16.5597 60.2983 14.9048 59.8438 13.456 58.9347C12.0071 58.0256 10.8672 56.733 10.0362 55.0568C9.20526 53.3807 8.78977 51.392 8.78977 49.0909C8.78977 46.7898 9.20526 44.8011 10.0362 43.125C10.8672 41.4489 12.0071 40.1562 13.456 39.2472C14.9048 38.3381 16.5597 37.8835 18.4205 37.8835C20.2813 37.8835 21.9361 38.3381 23.3849 39.2472C24.8338 40.1562 25.9737 41.4489 26.8047 43.125C27.6357 44.8011 28.0511 46.7898 28.0511 49.0909ZM25.4943 49.0909C25.4943 47.2017 25.1783 45.6072 24.5462 44.3075C23.9212 43.0078 23.0724 42.0241 22 41.3565C20.9347 40.6889 19.7415 40.3551 18.4205 40.3551C17.0994 40.3551 15.9027 40.6889 14.8303 41.3565C13.7649 42.0241 12.9162 43.0078 12.2841 44.3075C11.6591 45.6072 11.3466 47.2017 11.3466 49.0909C11.3466 50.9801 11.6591 52.5746 12.2841 53.8743C12.9162 55.174 13.7649 56.1577 14.8303 56.8253C15.9027 57.4929 17.0994 57.8267 18.4205 57.8267C19.7415 57.8267 20.9347 57.4929 22 56.8253C23.0724 56.1577 23.9212 55.174 24.5462 53.8743C25.1783 52.5746 25.4943 50.9801 25.4943 49.0909ZM42.4652 53.3097V43.6364H44.9794V60H42.4652V57.2301H42.2947C41.9112 58.0611 41.3146 58.7678 40.505 59.3501C39.6953 59.9254 38.6726 60.2131 37.4368 60.2131C36.4141 60.2131 35.505 59.9893 34.7095 59.5419C33.9141 59.0874 33.2891 58.4055 32.8345 57.4964C32.38 56.5803 32.1527 55.4261 32.1527 54.0341V43.6364H34.6669V53.8636C34.6669 55.0568 35.0007 56.0085 35.6683 56.7188C36.343 57.429 37.2024 57.7841 38.2464 57.7841C38.8714 57.7841 39.5071 57.6243 40.1534 57.3047C40.8068 56.9851 41.3537 56.495 41.794 55.8345C42.2415 55.174 42.4652 54.3324 42.4652 53.3097ZM56.7008 43.6364V45.767H48.2207V43.6364H56.7008ZM50.6923 39.7159H53.2065V55.3125C53.2065 56.0227 53.3095 56.5554 53.5154 56.9105C53.7285 57.2585 53.9984 57.4929 54.3251 57.6136C54.6589 57.7273 55.0105 57.7841 55.3798 57.7841C55.6568 57.7841 55.8841 57.7699 56.0616 57.7415C56.2392 57.706 56.3812 57.6776 56.4877 57.6562L56.9991 59.9148C56.8287 59.9787 56.5907 60.0426 56.2853 60.1065C55.9799 60.1776 55.5929 60.2131 55.1241 60.2131C54.4139 60.2131 53.7179 60.0604 53.036 59.755C52.3613 59.4496 51.8002 58.9844 51.3528 58.3594C50.9125 57.7344 50.6923 56.946 50.6923 55.9943V39.7159ZM66.486 60.3409C65.1223 60.3409 63.9185 59.9964 62.8745 59.3075C61.8304 58.6115 61.0137 57.6314 60.4242 56.3672C59.8347 55.0959 59.54 53.5938 59.54 51.8608C59.54 50.142 59.8347 48.6506 60.4242 47.3864C61.0137 46.1222 61.834 45.1456 62.8851 44.4567C63.9363 43.7678 65.1507 43.4233 66.5286 43.4233C67.5939 43.4233 68.4355 43.6009 69.0534 43.956C69.6784 44.304 70.1543 44.7017 70.481 45.1491C70.8148 45.5895 71.074 45.9517 71.2587 46.2358H71.4718V38.1818H73.986V60H71.557V57.4858H71.2587C71.074 57.7841 70.8113 58.1605 70.4703 58.6151C70.1294 59.0625 69.6429 59.4638 69.0108 59.8189C68.3787 60.1669 67.5371 60.3409 66.486 60.3409ZM66.8269 58.0824C67.8354 58.0824 68.6877 57.8196 69.3837 57.294C70.0797 56.7614 70.6088 56.0263 70.9711 55.0888C71.3333 54.1442 71.5144 53.054 71.5144 51.8182C71.5144 50.5966 71.3368 49.5277 70.9817 48.6115C70.6266 47.6882 70.101 46.9709 69.405 46.4595C68.709 45.9411 67.8496 45.6818 66.8269 45.6818C65.7615 45.6818 64.8738 45.9553 64.1635 46.5021C63.4604 47.0419 62.9313 47.777 62.5762 48.7074C62.2282 49.6307 62.0542 50.6676 62.0542 51.8182C62.0542 52.983 62.2317 54.0412 62.5868 54.9929C62.949 55.9375 63.4817 56.6903 64.1848 57.2514C64.8951 57.8054 65.7757 58.0824 66.8269 58.0824ZM85.5875 60.3409C84.1103 60.3409 82.8141 59.9893 81.699 59.2862C80.5911 58.5831 79.7246 57.5994 79.0996 56.3352C78.4817 55.071 78.1728 53.5937 78.1728 51.9034C78.1728 50.1989 78.4817 48.7109 79.0996 47.4396C79.7246 46.1683 80.5911 45.1811 81.699 44.478C82.8141 43.7749 84.1103 43.4233 85.5875 43.4233C87.0648 43.4233 88.3574 43.7749 89.4654 44.478C90.5804 45.1811 91.4469 46.1683 92.0648 47.4396C92.6898 48.7109 93.0023 50.1989 93.0023 51.9034C93.0023 53.5937 92.6898 55.071 92.0648 56.3352C91.4469 57.5994 90.5804 58.5831 89.4654 59.2862C88.3574 59.9893 87.0648 60.3409 85.5875 60.3409ZM85.5875 58.0824C86.7097 58.0824 87.633 57.7947 88.3574 57.2195C89.0819 56.6442 89.6181 55.8878 89.9661 54.9503C90.3141 54.0128 90.4881 52.9972 90.4881 51.9034C90.4881 50.8097 90.3141 49.7905 89.9661 48.8459C89.6181 47.9013 89.0819 47.1378 88.3574 46.5554C87.633 45.973 86.7097 45.6818 85.5875 45.6818C84.4654 45.6818 83.5421 45.973 82.8176 46.5554C82.0932 47.1378 81.557 47.9013 81.209 48.8459C80.861 49.7905 80.687 50.8097 80.687 51.9034C80.687 52.9972 80.861 54.0128 81.209 54.9503C81.557 55.8878 82.0932 56.6442 82.8176 57.2195C83.5421 57.7947 84.4654 58.0824 85.5875 58.0824ZM103.488 60.3409C102.011 60.3409 100.714 59.9893 99.5994 59.2862C98.4915 58.5831 97.625 57.5994 97 56.3352C96.3821 55.071 96.0732 53.5937 96.0732 51.9034C96.0732 50.1989 96.3821 48.7109 97 47.4396C97.625 46.1683 98.4915 45.1811 99.5994 44.478C100.714 43.7749 102.011 43.4233 103.488 43.4233C104.965 43.4233 106.258 43.7749 107.366 44.478C108.481 45.1811 109.347 46.1683 109.965 47.4396C110.59 48.7109 110.903 50.1989 110.903 51.9034C110.903 53.5937 110.59 55.071 109.965 56.3352C109.347 57.5994 108.481 58.5831 107.366 59.2862C106.258 59.9893 104.965 60.3409 103.488 60.3409ZM103.488 58.0824C104.61 58.0824 105.533 57.7947 106.258 57.2195C106.982 56.6442 107.518 55.8878 107.866 54.9503C108.214 54.0128 108.388 52.9972 108.388 51.9034C108.388 50.8097 108.214 49.7905 107.866 48.8459C107.518 47.9013 106.982 47.1378 106.258 46.5554C105.533 45.973 104.61 45.6818 103.488 45.6818C102.366 45.6818 101.442 45.973 100.718 46.5554C99.9936 47.1378 99.4574 47.9013 99.1094 48.8459C98.7614 49.7905 98.5874 50.8097 98.5874 51.9034C98.5874 52.9972 98.7614 54.0128 99.1094 54.9503C99.4574 55.8878 99.9936 56.6442 100.718 57.2195C101.442 57.7947 102.366 58.0824 103.488 58.0824ZM114.741 60V43.6364H117.17V46.108H117.34C117.638 45.2983 118.178 44.6413 118.959 44.1371C119.741 43.6328 120.621 43.3807 121.601 43.3807C121.786 43.3807 122.017 43.3842 122.294 43.3913C122.571 43.3984 122.78 43.4091 122.922 43.4233V45.9801C122.837 45.9588 122.642 45.9268 122.336 45.8842C122.038 45.8345 121.722 45.8097 121.388 45.8097C120.593 45.8097 119.883 45.9766 119.258 46.3104C118.64 46.6371 118.15 47.0916 117.787 47.674C117.432 48.2493 117.255 48.9062 117.255 49.6449V60H114.741ZM135.576 60H132.806L140.817 38.1818H143.545L151.556 60H148.786L142.266 41.6335H142.096L135.576 60ZM136.599 51.4773H147.763V53.821H136.599V51.4773ZM161.261 60.3409C159.727 60.3409 158.406 59.9787 157.298 59.2543C156.19 58.5298 155.338 57.532 154.741 56.2607C154.145 54.9893 153.847 53.5369 153.847 51.9034C153.847 50.2415 154.152 48.7749 154.763 47.5036C155.381 46.2251 156.24 45.2273 157.341 44.5099C158.449 43.7855 159.741 43.4233 161.219 43.4233C162.369 43.4233 163.406 43.6364 164.33 44.0625C165.253 44.4886 166.009 45.0852 166.599 45.8523C167.188 46.6193 167.554 47.5142 167.696 48.5369H165.182C164.99 47.7912 164.564 47.1307 163.903 46.5554C163.25 45.973 162.369 45.6818 161.261 45.6818C160.281 45.6818 159.422 45.9375 158.683 46.4489C157.952 46.9531 157.38 47.6669 156.968 48.5902C156.563 49.5064 156.361 50.5824 156.361 51.8182C156.361 53.0824 156.56 54.1832 156.957 55.1207C157.362 56.0582 157.93 56.7862 158.662 57.3047C159.401 57.8232 160.267 58.0824 161.261 58.0824C161.915 58.0824 162.508 57.9688 163.04 57.7415C163.573 57.5142 164.024 57.1875 164.393 56.7614C164.763 56.3352 165.026 55.8239 165.182 55.2273H167.696C167.554 56.1932 167.202 57.0632 166.641 57.8374C166.087 58.6044 165.352 59.2152 164.436 59.6697C163.527 60.1172 162.469 60.3409 161.261 60.3409ZM178.488 43.6364V45.767H170.008V43.6364H178.488ZM172.479 39.7159H174.994V55.3125C174.994 56.0227 175.097 56.5554 175.303 56.9105C175.516 57.2585 175.786 57.4929 176.112 57.6136C176.446 57.7273 176.798 57.7841 177.167 57.7841C177.444 57.7841 177.671 57.7699 177.849 57.7415C178.026 57.706 178.168 57.6776 178.275 57.6562L178.786 59.9148C178.616 59.9787 178.378 60.0426 178.072 60.1065C177.767 60.1776 177.38 60.2131 176.911 60.2131C176.201 60.2131 175.505 60.0604 174.823 59.755C174.148 59.4496 173.587 58.9844 173.14 58.3594C172.7 57.7344 172.479 56.946 172.479 55.9943V39.7159ZM182.27 60V43.6364H184.784V60H182.27ZM183.548 40.9091C183.058 40.9091 182.636 40.7422 182.281 40.4084C181.933 40.0746 181.759 39.6733 181.759 39.2045C181.759 38.7358 181.933 38.3345 182.281 38.0007C182.636 37.6669 183.058 37.5 183.548 37.5C184.038 37.5 184.457 37.6669 184.805 38.0007C185.161 38.3345 185.338 38.7358 185.338 39.2045C185.338 39.6733 185.161 40.0746 184.805 40.4084C184.457 40.7422 184.038 40.9091 183.548 40.9091ZM202.77 43.6364L196.719 60H194.162L188.111 43.6364H190.838L195.355 56.6761H195.525L200.042 43.6364H202.77ZM206.088 60V43.6364H208.602V60H206.088ZM207.367 40.9091C206.877 40.9091 206.454 40.7422 206.099 40.4084C205.751 40.0746 205.577 39.6733 205.577 39.2045C205.577 38.7358 205.751 38.3345 206.099 38.0007C206.454 37.6669 206.877 37.5 207.367 37.5C207.857 37.5 208.276 37.6669 208.624 38.0007C208.979 38.3345 209.156 38.7358 209.156 39.2045C209.156 39.6733 208.979 40.0746 208.624 40.4084C208.276 40.7422 207.857 40.9091 207.367 40.9091ZM220.324 43.6364V45.767H211.844V43.6364H220.324ZM214.315 39.7159H216.83V55.3125C216.83 56.0227 216.933 56.5554 217.138 56.9105C217.352 57.2585 217.621 57.4929 217.948 57.6136C218.282 57.7273 218.634 57.7841 219.003 57.7841C219.28 57.7841 219.507 57.7699 219.685 57.7415C219.862 57.706 220.004 57.6776 220.111 57.6562L220.622 59.9148C220.452 59.9787 220.214 60.0426 219.908 60.1065C219.603 60.1776 219.216 60.2131 218.747 60.2131C218.037 60.2131 217.341 60.0604 216.659 59.755C215.984 59.4496 215.423 58.9844 214.976 58.3594C214.536 57.7344 214.315 56.946 214.315 55.9943V39.7159ZM224.106 60V43.6364H226.62V60H224.106ZM225.384 40.9091C224.894 40.9091 224.472 40.7422 224.116 40.4084C223.768 40.0746 223.594 39.6733 223.594 39.2045C223.594 38.7358 223.768 38.3345 224.116 38.0007C224.472 37.6669 224.894 37.5 225.384 37.5C225.874 37.5 226.293 37.6669 226.641 38.0007C226.996 38.3345 227.174 38.7358 227.174 39.2045C227.174 39.6733 226.996 40.0746 226.641 40.4084C226.293 40.7422 225.874 40.9091 225.384 40.9091ZM238.086 60.3409C236.509 60.3409 235.149 59.9929 234.006 59.2969C232.869 58.5938 231.992 57.6136 231.374 56.3565C230.763 55.0923 230.458 53.6222 230.458 51.946C230.458 50.2699 230.763 48.7926 231.374 47.5142C231.992 46.2287 232.851 45.2273 233.952 44.5099C235.06 43.7855 236.353 43.4233 237.83 43.4233C238.682 43.4233 239.524 43.5653 240.355 43.8494C241.186 44.1335 241.942 44.5952 242.624 45.2344C243.306 45.8665 243.849 46.7045 244.254 47.7486C244.659 48.7926 244.861 50.0781 244.861 51.6051V52.6705H232.248V50.4972H242.305C242.305 49.5739 242.12 48.75 241.751 48.0256C241.388 47.3011 240.87 46.7294 240.195 46.3104C239.528 45.8913 238.739 45.6818 237.83 45.6818C236.829 45.6818 235.962 45.9304 235.231 46.4276C234.506 46.9176 233.949 47.5568 233.558 48.3452C233.167 49.1335 232.972 49.9787 232.972 50.8807V52.3295C232.972 53.5653 233.185 54.6129 233.611 55.4723C234.045 56.3246 234.645 56.9744 235.412 57.4219C236.179 57.8622 237.07 58.0824 238.086 58.0824C238.746 58.0824 239.343 57.9901 239.876 57.8054C240.415 57.6136 240.881 57.3295 241.271 56.9531C241.662 56.5696 241.964 56.0937 242.177 55.5256L244.606 56.2074C244.35 57.0312 243.92 57.7557 243.317 58.3807C242.713 58.9986 241.967 59.4815 241.079 59.8295C240.192 60.1705 239.194 60.3409 238.086 60.3409ZM260.277 47.3011L258.018 47.9403C257.876 47.5639 257.667 47.1982 257.39 46.843C257.12 46.4808 256.751 46.1825 256.282 45.9482C255.813 45.7138 255.213 45.5966 254.481 45.5966C253.48 45.5966 252.645 45.8274 251.978 46.2891C251.317 46.7436 250.987 47.3224 250.987 48.0256C250.987 48.6506 251.214 49.1442 251.669 49.5064C252.123 49.8686 252.834 50.1705 253.8 50.4119L256.229 51.0085C257.692 51.3636 258.782 51.907 259.499 52.6385C260.216 53.3629 260.575 54.2969 260.575 55.4403C260.575 56.3778 260.305 57.2159 259.765 57.9545C259.233 58.6932 258.487 59.2756 257.528 59.7017C256.569 60.1278 255.454 60.3409 254.183 60.3409C252.514 60.3409 251.133 59.9787 250.039 59.2543C248.945 58.5298 248.253 57.4716 247.961 56.0795L250.348 55.483C250.575 56.3636 251.005 57.0241 251.637 57.4645C252.276 57.9048 253.111 58.125 254.14 58.125C255.312 58.125 256.243 57.8764 256.932 57.3793C257.628 56.875 257.976 56.2713 257.976 55.5682C257.976 55 257.777 54.5241 257.379 54.1406C256.981 53.75 256.371 53.4588 255.547 53.267L252.819 52.6278C251.321 52.2727 250.22 51.7223 249.517 50.9766C248.821 50.2237 248.473 49.2827 248.473 48.1534C248.473 47.2301 248.732 46.4134 249.251 45.7031C249.776 44.9929 250.49 44.4354 251.392 44.0305C252.301 43.6257 253.331 43.4233 254.481 43.4233C256.101 43.4233 257.372 43.7784 258.295 44.4886C259.226 45.1989 259.886 46.1364 260.277 47.3011Z" fill="#010101"/>
<path d="M309.368 36.085C308.943 36.2423 308.622 36.4462 307.999 36.9647C307.696 37.2152 307.364 37.4715 307.259 37.5239C307.015 37.6462 306.677 37.6404 305.826 37.4948C303.985 37.1744 303.339 37.5705 302.692 39.4055C302.331 40.4308 302.238 40.524 301.195 40.9085C300.286 41.2405 300.065 41.357 299.727 41.6716C299.162 42.2017 299.063 42.7377 299.284 44.13C299.488 45.3999 299.535 45.2601 298.51 46.5126C297.991 47.1417 297.84 47.4854 297.816 48.0913C297.793 48.5573 297.805 48.5981 298.003 48.9942C298.113 49.2272 298.434 49.6874 298.713 50.0253C298.993 50.3632 299.273 50.7477 299.331 50.8875C299.453 51.1554 299.453 51.1671 299.255 52.3438C299.121 53.1477 299.121 53.34 299.232 53.7769C299.424 54.5167 299.844 54.8662 301.125 55.3497C302.011 55.6876 302.232 55.8041 302.232 55.9381C302.232 55.9905 301.719 57.645 301.096 59.6256C300.473 61.6004 299.96 63.3073 299.96 63.4122C299.96 63.5578 300.013 63.6626 300.158 63.8083L300.356 64.0063H303.391H306.426L306.601 63.8491C306.758 63.7034 306.857 63.4413 307.434 61.6063C307.801 60.4587 308.11 59.5091 308.127 59.4916C308.145 59.4742 308.331 59.5848 308.541 59.7421C309.048 60.1266 309.38 60.2489 309.922 60.2489C310.463 60.2489 310.795 60.1266 311.302 59.7421C311.512 59.5848 311.698 59.4742 311.716 59.4916C311.733 59.5091 312.042 60.4587 312.409 61.6063C312.986 63.4413 313.085 63.7034 313.242 63.8432L313.417 64.0063H316.452H319.487L319.685 63.8083C319.831 63.6626 319.883 63.5578 319.883 63.4122C319.883 63.3073 319.37 61.6004 318.747 59.6198C318.124 57.6391 317.611 55.9789 317.611 55.9381C317.611 55.8041 317.844 55.6876 318.718 55.3497C319.901 54.9012 320.256 54.6449 320.524 54.0332C320.704 53.6138 320.722 53.1652 320.588 52.3263C320.518 51.9069 320.448 51.47 320.431 51.3535C320.384 51.0389 320.547 50.7244 321.13 50.0253C321.409 49.6874 321.73 49.2272 321.84 48.9942C322.038 48.6039 322.05 48.5515 322.033 48.0913C322.004 47.4971 321.84 47.1301 321.316 46.4951C320.308 45.2659 320.355 45.3999 320.559 44.13C320.78 42.7377 320.681 42.2017 320.116 41.6716C319.778 41.357 319.557 41.2405 318.648 40.9085C317.605 40.524 317.512 40.4308 317.151 39.4055C316.504 37.5705 315.858 37.1744 314.017 37.4948C312.776 37.7103 312.694 37.687 311.786 36.9181C310.813 36.0967 310.067 35.8345 309.368 36.085ZM310.358 37.4831C310.487 37.5647 310.749 37.7744 310.941 37.9375C312.106 38.9511 312.549 39.0618 314.232 38.788C315.427 38.59 315.456 38.6074 315.945 39.924C316.469 41.3163 316.761 41.6134 318.106 42.1027C318.741 42.3299 319.056 42.4814 319.231 42.6445C319.4 42.8018 319.4 43.1513 319.236 44.1008C318.992 45.5222 319.102 45.8951 320.192 47.2C320.576 47.6543 320.757 47.9689 320.757 48.1786C320.757 48.3534 320.53 48.6913 319.97 49.3554C319.137 50.3399 319.009 50.8409 319.236 52.1749C319.301 52.571 319.359 53.0312 319.359 53.1943C319.359 53.6604 319.219 53.7711 318.211 54.1381C316.755 54.6682 316.452 54.9653 315.939 56.3692C315.578 57.377 315.403 57.5984 314.978 57.5984C314.879 57.5984 314.483 57.5459 314.093 57.476C313.638 57.4003 313.213 57.3653 312.893 57.377C312.246 57.4003 311.861 57.5867 311.011 58.2858C310.667 58.5712 310.283 58.8508 310.155 58.9091C309.933 59.0081 309.91 59.0081 309.689 58.9091C309.56 58.8508 309.176 58.5712 308.832 58.2858C307.982 57.5867 307.597 57.4003 306.951 57.377C306.63 57.3653 306.205 57.4003 305.751 57.476C305.36 57.5459 304.964 57.5984 304.865 57.5984C304.44 57.5984 304.265 57.377 303.904 56.3692C303.397 54.9711 303.083 54.6623 301.632 54.1381C300.624 53.7711 300.484 53.6604 300.484 53.1943C300.484 53.0312 300.543 52.571 300.607 52.1749C300.834 50.8409 300.706 50.3399 299.873 49.3554C299.313 48.6913 299.086 48.3534 299.086 48.1786C299.086 47.9689 299.267 47.6543 299.651 47.2C300.741 45.8951 300.851 45.5222 300.607 44.1008C300.444 43.1513 300.444 42.8018 300.613 42.6445C300.787 42.4814 301.102 42.3299 301.737 42.1027C303.083 41.6134 303.356 41.3396 303.892 39.9356C304.405 38.59 304.411 38.59 305.611 38.788C307.294 39.0618 307.737 38.9511 308.902 37.9375C309.426 37.4831 309.689 37.3258 309.922 37.3258C310.05 37.3258 310.219 37.3841 310.358 37.4831ZM303.712 58.5829C303.822 58.6586 304.015 58.7518 304.137 58.7984C304.463 58.9091 305.261 58.8974 306.007 58.7576C306.368 58.6935 306.741 58.6469 306.828 58.6586L306.986 58.6761L306.351 60.6975L305.71 62.7248H303.589C302.424 62.7248 301.481 62.7073 301.492 62.6781C301.51 62.6548 301.853 61.5771 302.261 60.2781C302.669 58.979 303.018 57.8955 303.03 57.8722C303.048 57.8489 303.158 57.9654 303.281 58.1343C303.403 58.3032 303.595 58.5071 303.712 58.5829ZM317.582 60.2781C317.99 61.5771 318.334 62.6548 318.351 62.6781C318.363 62.7073 317.419 62.7248 316.254 62.7248H314.139L313.498 60.6975L312.858 58.6761L313.021 58.6586C313.108 58.6469 313.481 58.6935 313.848 58.7576C314.611 58.8974 315.38 58.9091 315.706 58.7984C316.05 58.6761 316.365 58.4314 316.574 58.1227C316.679 57.9654 316.784 57.8547 316.801 57.878C316.825 57.9013 317.174 58.979 317.582 60.2781Z" fill="#6E00FF"/>
<path d="M308.698 40.4423C307.911 40.5704 307.206 40.7976 306.455 41.1704C304.247 42.2656 302.744 44.2463 302.255 46.7337C302.115 47.4386 302.115 48.8658 302.255 49.5765C302.884 52.8038 305.401 55.2738 308.605 55.8214C309.269 55.9321 310.574 55.9321 311.238 55.8214C314.249 55.3088 316.702 53.0543 317.465 50.095C318.176 47.3629 317.343 44.4502 315.281 42.4928C313.539 40.8326 311.08 40.0694 308.698 40.4423ZM310.678 41.6947C313.515 42.0617 315.782 44.1938 316.306 46.9784C316.434 47.6774 316.393 49.0464 316.224 49.6872C315.589 52.0465 313.842 53.8116 311.511 54.435C310.999 54.5748 310.842 54.5922 309.921 54.5922C309.001 54.5922 308.843 54.5748 308.331 54.435C306.001 53.8116 304.253 52.0465 303.618 49.6872C303.449 49.0464 303.408 47.6774 303.536 46.9784C304.166 43.6288 307.364 41.2695 310.678 41.6947Z" fill="#6E00FF"/>
<path d="M309.659 43.495C309.455 43.5823 309.362 43.7396 308.849 44.8348C308.57 45.429 308.331 45.9242 308.319 45.9416C308.302 45.9533 307.748 46.0523 307.084 46.1572C305.908 46.3436 305.867 46.3494 305.715 46.5242C305.541 46.7223 305.5 47.0135 305.616 47.2465C305.651 47.3164 306.053 47.7534 306.513 48.2194L307.346 49.0641L307.061 50.2874C306.88 51.0447 306.781 51.5748 306.805 51.6855C306.822 51.7787 306.904 51.9302 306.991 52.0176C307.113 52.1457 307.201 52.1807 307.405 52.1807C307.62 52.1807 307.865 52.0817 308.791 51.604L309.921 51.0272L311.051 51.604C312.316 52.2506 312.508 52.2972 312.828 52.0292C313.108 51.7962 313.102 51.6447 312.782 50.2874L312.496 49.0641L313.329 48.2194C313.789 47.7534 314.191 47.3164 314.226 47.2465C314.337 47.0252 314.302 46.7281 314.145 46.5358C313.976 46.3378 313.877 46.3145 312.572 46.1222C312.123 46.0582 311.704 45.9941 311.634 45.9766C311.541 45.9591 311.389 45.6853 311.005 44.8581C310.725 44.2523 310.434 43.7047 310.364 43.6289C310.218 43.4775 309.851 43.4134 309.659 43.495ZM310.253 46.3494C310.44 46.7514 310.603 47.0193 310.696 47.0834C310.807 47.1533 311.96 47.3922 312.251 47.4038C312.263 47.4038 312.065 47.6194 311.809 47.8815C311.051 48.6563 311.051 48.6446 311.29 49.6408C311.372 49.9787 311.436 50.2699 311.436 50.2874C311.436 50.2991 311.116 50.1593 310.731 49.967C310.341 49.7748 309.974 49.6175 309.921 49.6175C309.869 49.6175 309.502 49.7748 309.106 49.967C308.453 50.2874 308.395 50.3107 308.43 50.1884C308.581 49.6233 308.71 48.8078 308.675 48.6679C308.651 48.5747 308.401 48.2602 308.104 47.9514C307.813 47.6485 307.585 47.4038 307.597 47.4038C307.894 47.3864 309.036 47.1533 309.147 47.0834C309.24 47.0193 309.403 46.7514 309.589 46.3494C309.752 45.9999 309.904 45.7144 309.921 45.7144C309.939 45.7144 310.09 45.9999 310.253 46.3494Z" fill="#6E00FF"/>
<path d="M344.642 60V38.1818H357.81V40.5256H347.284V47.8977H357.128V50.2415H347.284V57.6562H357.98V60H344.642ZM364.106 43.6364L368.026 50.3267L371.947 43.6364H374.844L369.56 51.8182L374.844 60H371.947L368.026 53.6506L364.106 60H361.208L366.407 51.8182L361.208 43.6364H364.106ZM384.406 60.3409C382.872 60.3409 381.551 59.9787 380.443 59.2543C379.335 58.5298 378.483 57.532 377.886 56.2607C377.289 54.9893 376.991 53.5369 376.991 51.9034C376.991 50.2415 377.297 48.7749 377.907 47.5036C378.525 46.2251 379.385 45.2273 380.485 44.5099C381.593 43.7855 382.886 43.4233 384.363 43.4233C385.514 43.4233 386.551 43.6364 387.474 44.0625C388.397 44.4886 389.154 45.0852 389.743 45.8523C390.333 46.6193 390.699 47.5142 390.841 48.5369H388.326C388.135 47.7912 387.708 47.1307 387.048 46.5554C386.395 45.973 385.514 45.6818 384.406 45.6818C383.426 45.6818 382.566 45.9375 381.828 46.4489C381.096 46.9531 380.525 47.6669 380.113 48.5902C379.708 49.5064 379.505 50.5824 379.505 51.8182C379.505 53.0824 379.704 54.1832 380.102 55.1207C380.507 56.0582 381.075 56.7862 381.806 57.3047C382.545 57.8232 383.412 58.0824 384.406 58.0824C385.059 58.0824 385.652 57.9688 386.185 57.7415C386.718 57.5142 387.169 57.1875 387.538 56.7614C387.907 56.3352 388.17 55.8239 388.326 55.2273H390.841C390.699 56.1932 390.347 57.0632 389.786 57.8374C389.232 58.6044 388.497 59.2152 387.581 59.6697C386.672 60.1172 385.613 60.3409 384.406 60.3409ZM397.03 38.1818V60H394.516V38.1818H397.03ZM411.948 53.3097V43.6364H414.462V60H411.948V57.2301H411.777C411.394 58.0611 410.797 58.7678 409.987 59.3501C409.178 59.9254 408.155 60.2131 406.919 60.2131C405.896 60.2131 404.987 59.9893 404.192 59.5419C403.396 59.0874 402.771 58.4055 402.317 57.4964C401.862 56.5803 401.635 55.4261 401.635 54.0341V43.6364H404.149V53.8636C404.149 55.0568 404.483 56.0085 405.151 56.7188C405.825 57.429 406.685 57.7841 407.729 57.7841C408.354 57.7841 408.99 57.6243 409.636 57.3047C410.289 56.9851 410.836 56.495 411.276 55.8345C411.724 55.174 411.948 54.3324 411.948 53.3097ZM430.658 47.3011L428.399 47.9403C428.257 47.5639 428.048 47.1982 427.771 46.843C427.501 46.4808 427.131 46.1825 426.663 45.9482C426.194 45.7138 425.594 45.5966 424.862 45.5966C423.861 45.5966 423.026 45.8274 422.359 46.2891C421.698 46.7436 421.368 47.3224 421.368 48.0256C421.368 48.6506 421.595 49.1442 422.05 49.5064C422.504 49.8686 423.214 50.1705 424.18 50.4119L426.609 51.0085C428.072 51.3636 429.163 51.907 429.88 52.6385C430.597 53.3629 430.956 54.2969 430.956 55.4403C430.956 56.3778 430.686 57.2159 430.146 57.9545C429.614 58.6932 428.868 59.2756 427.909 59.7017C426.95 60.1278 425.835 60.3409 424.564 60.3409C422.895 60.3409 421.513 59.9787 420.42 59.2543C419.326 58.5298 418.634 57.4716 418.342 56.0795L420.729 55.483C420.956 56.3636 421.386 57.0241 422.018 57.4645C422.657 57.9048 423.491 58.125 424.521 58.125C425.693 58.125 426.624 57.8764 427.312 57.3793C428.009 56.875 428.357 56.2713 428.357 55.5682C428.357 55 428.158 54.5241 427.76 54.1406C427.362 53.75 426.751 53.4588 425.928 53.267L423.2 52.6278C421.702 52.2727 420.601 51.7223 419.898 50.9766C419.202 50.2237 418.854 49.2827 418.854 48.1534C418.854 47.2301 419.113 46.4134 419.631 45.7031C420.157 44.9929 420.871 44.4354 421.773 44.0305C422.682 43.6257 423.712 43.4233 424.862 43.4233C426.482 43.4233 427.753 43.7784 428.676 44.4886C429.607 45.1989 430.267 46.1364 430.658 47.3011ZM434.741 60V43.6364H437.255V60H434.741ZM436.019 40.9091C435.529 40.9091 435.106 40.7422 434.751 40.4084C434.403 40.0746 434.229 39.6733 434.229 39.2045C434.229 38.7358 434.403 38.3345 434.751 38.0007C435.106 37.6669 435.529 37.5 436.019 37.5C436.509 37.5 436.928 37.6669 437.276 38.0007C437.631 38.3345 437.809 38.7358 437.809 39.2045C437.809 39.6733 437.631 40.0746 437.276 40.4084C436.928 40.7422 436.509 40.9091 436.019 40.9091ZM455.24 43.6364L449.189 60H446.632L440.581 43.6364H443.309L447.826 56.6761H447.996L452.513 43.6364H455.24ZM464.834 60.3409C463.257 60.3409 461.897 59.9929 460.754 59.2969C459.617 58.5938 458.74 57.6136 458.122 56.3565C457.511 55.0923 457.206 53.6222 457.206 51.946C457.206 50.2699 457.511 48.7926 458.122 47.5142C458.74 46.2287 459.599 45.2273 460.7 44.5099C461.808 43.7855 463.101 43.4233 464.578 43.4233C465.43 43.4233 466.272 43.5653 467.103 43.8494C467.934 44.1335 468.69 44.5952 469.372 45.2344C470.054 45.8665 470.597 46.7045 471.002 47.7486C471.407 48.7926 471.609 50.0781 471.609 51.6051V52.6705H458.996V50.4972H469.053C469.053 49.5739 468.868 48.75 468.499 48.0256C468.136 47.3011 467.618 46.7294 466.943 46.3104C466.276 45.8913 465.487 45.6818 464.578 45.6818C463.577 45.6818 462.71 45.9304 461.979 46.4276C461.254 46.9176 460.697 47.5568 460.306 48.3452C459.915 49.1335 459.72 49.9787 459.72 50.8807V52.3295C459.72 53.5653 459.933 54.6129 460.359 55.4723C460.793 56.3246 461.393 56.9744 462.16 57.4219C462.927 57.8622 463.818 58.0824 464.834 58.0824C465.494 58.0824 466.091 57.9901 466.624 57.8054C467.163 57.6136 467.629 57.3295 468.019 56.9531C468.41 56.5696 468.712 56.0937 468.925 55.5256L471.354 56.2074C471.098 57.0312 470.668 57.7557 470.065 58.3807C469.461 58.9986 468.715 59.4815 467.827 59.8295C466.94 60.1705 465.942 60.3409 464.834 60.3409ZM485.107 60H482.337L490.349 38.1818H493.076L501.087 60H498.317L491.798 41.6335H491.627L485.107 60ZM486.13 51.4773H497.295V53.821H486.13V51.4773ZM504.145 60V43.6364H506.574V46.1932H506.787C507.128 45.3196 507.678 44.6413 508.438 44.1584C509.198 43.6683 510.111 43.4233 511.176 43.4233C512.256 43.4233 513.154 43.6683 513.871 44.1584C514.596 44.6413 515.161 45.3196 515.565 46.1932H515.736C516.155 45.348 516.783 44.6768 517.621 44.1797C518.46 43.6754 519.464 43.4233 520.636 43.4233C522.099 43.4233 523.296 43.8814 524.227 44.7976C525.157 45.7067 525.622 47.1236 525.622 49.0483V60H523.108V49.0483C523.108 47.8409 522.778 46.978 522.117 46.4595C521.457 45.9411 520.679 45.6818 519.784 45.6818C518.634 45.6818 517.742 46.0298 517.11 46.7259C516.478 47.4148 516.162 48.2884 516.162 49.3466V60H513.605V48.7926C513.605 47.8622 513.303 47.1129 512.7 46.5447C512.096 45.9695 511.318 45.6818 510.366 45.6818C509.713 45.6818 509.102 45.8558 508.534 46.2038C507.973 46.5518 507.518 47.0348 507.17 47.6527C506.83 48.2635 506.659 48.9702 506.659 49.7727V60H504.145ZM537.08 60.3409C535.503 60.3409 534.143 59.9929 533 59.2969C531.863 58.5938 530.986 57.6136 530.368 56.3565C529.757 55.0923 529.452 53.6222 529.452 51.946C529.452 50.2699 529.757 48.7926 530.368 47.5142C530.986 46.2287 531.846 45.2273 532.946 44.5099C534.054 43.7855 535.347 43.4233 536.824 43.4233C537.676 43.4233 538.518 43.5653 539.349 43.8494C540.18 44.1335 540.936 44.5952 541.618 45.2344C542.3 45.8665 542.843 46.7045 543.248 47.7486C543.653 48.7926 543.855 50.0781 543.855 51.6051V52.6705H531.242V50.4972H541.299C541.299 49.5739 541.114 48.75 540.745 48.0256C540.382 47.3011 539.864 46.7294 539.189 46.3104C538.522 45.8913 537.733 45.6818 536.824 45.6818C535.823 45.6818 534.956 45.9304 534.225 46.4276C533.5 46.9176 532.943 47.5568 532.552 48.3452C532.162 49.1335 531.966 49.9787 531.966 50.8807V52.3295C531.966 53.5653 532.179 54.6129 532.605 55.4723C533.039 56.3246 533.639 56.9744 534.406 57.4219C535.173 57.8622 536.064 58.0824 537.08 58.0824C537.74 58.0824 538.337 57.9901 538.87 57.8054C539.409 57.6136 539.875 57.3295 540.265 56.9531C540.656 56.5696 540.958 56.0937 541.171 55.5256L543.6 56.2074C543.344 57.0312 542.914 57.7557 542.311 58.3807C541.707 58.9986 540.961 59.4815 540.074 59.8295C539.186 60.1705 538.188 60.3409 537.08 60.3409ZM550.194 50.1562V60H547.68V43.6364H550.109V46.1932H550.322C550.706 45.3622 551.288 44.6946 552.069 44.1903C552.85 43.679 553.859 43.4233 555.095 43.4233C556.203 43.4233 557.172 43.6506 558.003 44.1051C558.834 44.5526 559.48 45.2344 559.942 46.1506C560.404 47.0597 560.635 48.2102 560.635 49.6023V60H558.12V49.7727C558.12 48.4872 557.787 47.4858 557.119 46.7685C556.451 46.044 555.535 45.6818 554.37 45.6818C553.568 45.6818 552.85 45.8558 552.218 46.2038C551.593 46.5518 551.1 47.0597 550.738 47.7273C550.375 48.3949 550.194 49.2045 550.194 50.1562ZM565.229 60V43.6364H567.743V60H565.229ZM566.507 40.9091C566.017 40.9091 565.595 40.7422 565.24 40.4084C564.892 40.0746 564.718 39.6733 564.718 39.2045C564.718 38.7358 564.892 38.3345 565.24 38.0007C565.595 37.6669 566.017 37.5 566.507 37.5C566.997 37.5 567.416 37.6669 567.764 38.0007C568.119 38.3345 568.297 38.7358 568.297 39.2045C568.297 39.6733 568.119 40.0746 567.764 40.4084C567.416 40.7422 566.997 40.9091 566.507 40.9091ZM579.464 43.6364V45.767H570.984V43.6364H579.464ZM573.456 39.7159H575.97V55.3125C575.97 56.0227 576.073 56.5554 576.279 56.9105C576.492 57.2585 576.762 57.4929 577.089 57.6136C577.423 57.7273 577.774 57.7841 578.143 57.7841C578.42 57.7841 578.648 57.7699 578.825 57.7415C579.003 57.706 579.145 57.6776 579.251 57.6562L579.763 59.9148C579.592 59.9787 579.354 60.0426 579.049 60.1065C578.744 60.1776 578.357 60.2131 577.888 60.2131C577.178 60.2131 576.482 60.0604 575.8 59.755C575.125 59.4496 574.564 58.9844 574.116 58.3594C573.676 57.7344 573.456 56.946 573.456 55.9943V39.7159ZM583.246 60V43.6364H585.761V60H583.246ZM584.525 40.9091C584.035 40.9091 583.612 40.7422 583.257 40.4084C582.909 40.0746 582.735 39.6733 582.735 39.2045C582.735 38.7358 582.909 38.3345 583.257 38.0007C583.612 37.6669 584.035 37.5 584.525 37.5C585.015 37.5 585.434 37.6669 585.782 38.0007C586.137 38.3345 586.315 38.7358 586.315 39.2045C586.315 39.6733 586.137 40.0746 585.782 40.4084C585.434 40.7422 585.015 40.9091 584.525 40.9091ZM597.226 60.3409C595.65 60.3409 594.29 59.9929 593.146 59.2969C592.01 58.5938 591.133 57.6136 590.515 56.3565C589.904 55.0923 589.599 53.6222 589.599 51.946C589.599 50.2699 589.904 48.7926 590.515 47.5142C591.133 46.2287 591.992 45.2273 593.093 44.5099C594.201 43.7855 595.493 43.4233 596.971 43.4233C597.823 43.4233 598.665 43.5653 599.496 43.8494C600.327 44.1335 601.083 44.5952 601.765 45.2344C602.447 45.8665 602.99 46.7045 603.395 47.7486C603.8 48.7926 604.002 50.0781 604.002 51.6051V52.6705H591.388V50.4972H601.445C601.445 49.5739 601.26 48.75 600.891 48.0256C600.529 47.3011 600.01 46.7294 599.336 46.3104C598.668 45.8913 597.88 45.6818 596.971 45.6818C595.969 45.6818 595.103 45.9304 594.371 46.4276C593.647 46.9176 593.089 47.5568 592.699 48.3452C592.308 49.1335 592.113 49.9787 592.113 50.8807V52.3295C592.113 53.5653 592.326 54.6129 592.752 55.4723C593.185 56.3246 593.785 56.9744 594.552 57.4219C595.319 57.8622 596.211 58.0824 597.226 58.0824C597.887 58.0824 598.483 57.9901 599.016 57.8054C599.556 57.6136 600.021 57.3295 600.412 56.9531C600.802 56.5696 601.104 56.0937 601.317 55.5256L603.746 56.2074C603.491 57.0312 603.061 57.7557 602.457 58.3807C601.854 58.9986 601.108 59.4815 600.22 59.8295C599.332 60.1705 598.334 60.3409 597.226 60.3409ZM619.417 47.3011L617.159 47.9403C617.017 47.5639 616.807 47.1982 616.53 46.843C616.26 46.4808 615.891 46.1825 615.422 45.9482C614.954 45.7138 614.354 45.5966 613.622 45.5966C612.621 45.5966 611.786 45.8274 611.118 46.2891C610.458 46.7436 610.128 47.3224 610.128 48.0256C610.128 48.6506 610.355 49.1442 610.809 49.5064C611.264 49.8686 611.974 50.1705 612.94 50.4119L615.369 51.0085C616.832 51.3636 617.922 51.907 618.64 52.6385C619.357 53.3629 619.716 54.2969 619.716 55.4403C619.716 56.3778 619.446 57.2159 618.906 57.9545C618.373 58.6932 617.628 59.2756 616.669 59.7017C615.71 60.1278 614.595 60.3409 613.324 60.3409C611.655 60.3409 610.273 59.9787 609.18 59.2543C608.086 58.5298 607.393 57.4716 607.102 56.0795L609.488 55.483C609.716 56.3636 610.145 57.0241 610.778 57.4645C611.417 57.9048 612.251 58.125 613.281 58.125C614.453 58.125 615.383 57.8764 616.072 57.3793C616.768 56.875 617.116 56.2713 617.116 55.5682C617.116 55 616.917 54.5241 616.52 54.1406C616.122 53.75 615.511 53.4588 614.687 53.267L611.96 52.6278C610.461 52.2727 609.361 51.7223 608.657 50.9766C607.961 50.2237 607.613 49.2827 607.613 48.1534C607.613 47.2301 607.873 46.4134 608.391 45.7031C608.917 44.9929 609.631 44.4354 610.532 44.0305C611.442 43.6257 612.471 43.4233 613.622 43.4233C615.241 43.4233 616.513 43.7784 617.436 44.4886C618.366 45.1989 619.027 46.1364 619.417 47.3011Z" fill="#010101"/>
<path d="M679.332 37.3753C678.817 37.6288 678.74 37.8133 678.21 40.2415C677.703 42.539 677.687 42.7695 677.972 42.8848C678.041 42.9079 678.494 42.9309 678.978 42.9309H679.854V44.4677V46.0046H678.471C677.188 46.0046 677.08 46.0122 676.934 46.1582C676.85 46.2428 676.781 46.3811 676.781 46.4656C676.781 46.5501 676.85 46.6884 676.934 46.773C677.088 46.9267 677.188 46.9267 681.968 46.9267H686.847V48.6172V50.3077H683.904C681.714 50.3077 680.938 50.3307 680.869 50.3999C680.746 50.5228 680.746 50.9378 680.869 51.0607C680.938 51.1299 681.714 51.1529 683.904 51.1529H686.847V52.8434V54.534H684.273H681.699L681.568 54.7337C681.453 54.9182 681.453 54.9566 681.553 55.141C681.668 55.3408 681.668 55.3408 682.851 55.3792C684.111 55.4253 684.38 55.4868 684.888 55.871C685.249 56.1476 685.541 56.747 685.594 57.3387C685.656 58.0379 685.748 58.0917 686.778 58.0533C687.439 58.0379 687.569 58.0072 687.661 57.8842C687.754 57.7536 687.769 56.8315 687.769 52.0212C687.769 46.4118 687.769 46.3119 687.615 46.1582C687.469 46.0122 687.362 46.0046 684.964 46.0046H682.467V44.4677V42.9309H683.374C684.35 42.9309 684.619 42.8464 684.619 42.5236C684.619 42.3315 683.727 38.2589 683.627 38.0054C683.55 37.7979 683.212 37.4598 682.951 37.3292C682.844 37.2754 682.221 37.2446 681.184 37.2446C679.862 37.2446 679.539 37.2677 679.332 37.3753ZM682.69 38.2359C682.774 38.3204 682.882 38.5817 682.928 38.8353C682.982 39.0812 683.159 39.8803 683.32 40.618C683.481 41.3557 683.62 41.9627 683.62 41.9781C683.62 41.9934 682.528 42.0088 681.199 42.0088C679.217 42.0088 678.779 41.9934 678.779 41.9012C678.779 41.8474 678.948 41.0329 679.155 40.0955C679.393 39.0043 679.578 38.3358 679.662 38.2436C679.793 38.1053 679.908 38.0899 681.176 38.0899C682.421 38.0899 682.559 38.1053 682.69 38.2359ZM681.622 44.4677V46.0046H681.199H680.777V44.4677V42.9309H681.199H681.622V44.4677ZM686.847 56.2629V57.1466H686.655C686.517 57.1466 686.463 57.1081 686.463 56.9929C686.463 56.7086 686.163 55.9632 685.925 55.6712L685.687 55.3792H686.271H686.847V56.2629Z" fill="#6E00FF"/>
<path d="M657.924 40.5948C657.655 40.6793 657.424 40.8407 657.109 41.1481C656.487 41.7705 656.417 42.0241 656.417 43.6454V44.944L656.149 45.2591C655.572 45.9276 655.388 47.0956 655.757 47.7411L655.933 48.0561L655.103 48.6017C654.051 49.3009 652.752 50.3613 652.122 51.0375C651.584 51.6139 651.238 52.2593 651.115 52.9125C651.069 53.1661 651.039 55.1178 651.039 57.9149C651.039 62.2641 651.046 62.51 651.177 62.6252C651.292 62.7328 651.5 62.7559 652.368 62.7559C653.044 62.7559 653.428 62.7251 653.467 62.6713C653.49 62.6252 653.582 62.3255 653.659 62.0028C653.997 60.6581 654.696 59.6668 655.634 59.2058L656.149 58.9522H665.792H675.436L675.951 59.2058C676.919 59.6822 677.61 60.6581 677.925 61.9874C678.01 62.3409 678.125 62.656 678.179 62.6944C678.233 62.7251 678.732 62.7559 679.293 62.7559C680.108 62.7559 680.331 62.7328 680.423 62.6329C680.53 62.5253 680.546 61.9874 680.546 57.8841C680.546 55.187 680.515 53.0815 680.469 52.851C680.346 52.1902 680.023 51.6292 679.401 50.9761C678.686 50.2307 677.472 49.2395 676.419 48.5633L675.643 48.0561L675.781 47.8563C676.25 47.1955 676.081 45.9891 675.405 45.213L675.182 44.9594L675.151 43.5071C675.128 42.1854 675.113 42.0164 674.959 41.7397C674.736 41.3248 674.291 40.8945 673.868 40.687L673.515 40.5103L665.907 40.4949C659.299 40.4795 658.254 40.4949 657.924 40.5948ZM673.515 41.5169C673.684 41.6014 673.93 41.8243 674.053 42.001C674.275 42.3237 674.283 42.3545 674.306 43.3918L674.329 44.4522L673.845 44.2909C673.384 44.1295 673.223 44.1218 670.441 44.1218H667.521L667.075 44.3293C666.829 44.4446 666.453 44.7212 666.207 44.9671L665.777 45.3897L665.439 45.0055C665.216 44.7673 664.901 44.5368 664.578 44.3754L664.063 44.1218H661.143C658.362 44.1218 658.2 44.1295 657.739 44.2909L657.247 44.4522L657.278 43.4456C657.301 42.3161 657.409 41.9856 657.824 41.686C658.346 41.3094 658.139 41.3248 665.907 41.3402C673.146 41.3555 673.207 41.3555 673.515 41.5169ZM663.848 45.0439C664.716 45.2975 665.331 46.1504 665.331 47.0956V47.6181H661.097H656.863L656.64 47.3953C656.079 46.8266 656.694 45.6356 657.747 45.2437C658.461 44.9824 658.853 44.944 661.228 44.9363C663.003 44.9287 663.541 44.9517 663.848 45.0439ZM673.438 45.0977C674.483 45.4128 675.013 45.9045 675.136 46.6883C675.198 47.0802 675.067 47.4106 674.813 47.5336C674.675 47.5951 673.384 47.6181 670.441 47.6181H666.253V47.1724C666.253 46.5039 666.445 46.0352 666.906 45.5664C667.536 44.944 667.613 44.9287 670.556 44.9594C672.5 44.9748 673.138 45.0055 673.438 45.0977ZM675.344 48.9398C677.134 50.0309 679.017 51.6753 679.401 52.4975C679.601 52.9125 679.624 53.0354 679.624 53.7808V54.6107H665.792H651.961V53.8423C651.961 52.6512 652.091 52.3823 653.144 51.3449C654.012 50.4843 654.927 49.7774 656.202 48.9782L656.902 48.5402H665.792H674.683L675.344 48.9398ZM679.624 56.8007V58.0685H665.792H651.961V56.8007V55.5328H665.792H679.624V56.8007ZM654.035 59.2749C653.574 59.7975 653.213 60.4506 652.96 61.2113L652.737 61.8722L652.345 61.8952L651.961 61.9183V60.4199V58.9138H653.159H654.358L654.035 59.2749ZM679.624 60.4199V61.9183L679.224 61.8952L678.832 61.8722L678.701 61.3804C678.509 60.6888 678.064 59.8436 677.61 59.3441L677.226 58.9138H678.425H679.624V60.4199Z" fill="#6E00FF"/>
<path d="M681.798 48.2789C681.683 48.4633 681.683 48.5017 681.783 48.6861C681.868 48.8398 681.952 48.8859 682.16 48.8859C682.367 48.8859 682.452 48.8398 682.536 48.6861C682.636 48.5017 682.636 48.4633 682.521 48.2789C682.429 48.1406 682.321 48.0791 682.16 48.0791C681.998 48.0791 681.891 48.1406 681.798 48.2789Z" fill="#6E00FF"/>
<path d="M681.822 52.6589C681.668 52.8126 681.668 52.9893 681.822 53.2121C682.052 53.5502 682.621 53.3351 682.621 52.9048C682.621 52.7127 682.406 52.5359 682.16 52.5359C682.037 52.5359 681.883 52.5897 681.822 52.6589Z" fill="#6E00FF"/>
<path d="M703.834 60V38.1818H716.917V40.5256H706.476V47.8977H715.937V50.2415H706.476V60H703.834ZM720.925 60V43.6364H723.354V46.108H723.525C723.823 45.2983 724.363 44.6413 725.144 44.1371C725.925 43.6328 726.806 43.3807 727.786 43.3807C727.971 43.3807 728.201 43.3842 728.478 43.3913C728.755 43.3984 728.965 43.4091 729.107 43.4233V45.9801C729.022 45.9588 728.826 45.9268 728.521 45.8842C728.223 45.8345 727.907 45.8097 727.573 45.8097C726.777 45.8097 726.067 45.9766 725.442 46.3104C724.824 46.6371 724.334 47.0916 723.972 47.674C723.617 48.2493 723.439 48.9062 723.439 49.6449V60H720.925ZM738.237 60.3409C736.76 60.3409 735.464 59.9893 734.348 59.2862C733.241 58.5831 732.374 57.5994 731.749 56.3352C731.131 55.071 730.822 53.5937 730.822 51.9034C730.822 50.1989 731.131 48.7109 731.749 47.4396C732.374 46.1683 733.241 45.1811 734.348 44.478C735.464 43.7749 736.76 43.4233 738.237 43.4233C739.714 43.4233 741.007 43.7749 742.115 44.478C743.23 45.1811 744.096 46.1683 744.714 47.4396C745.339 48.7109 745.652 50.1989 745.652 51.9034C745.652 53.5937 745.339 55.071 744.714 56.3352C744.096 57.5994 743.23 58.5831 742.115 59.2862C741.007 59.9893 739.714 60.3409 738.237 60.3409ZM738.237 58.0824C739.359 58.0824 740.282 57.7947 741.007 57.2195C741.731 56.6442 742.267 55.8878 742.616 54.9503C742.964 54.0128 743.138 52.9972 743.138 51.9034C743.138 50.8097 742.964 49.7905 742.616 48.8459C742.267 47.9013 741.731 47.1378 741.007 46.5554C740.282 45.973 739.359 45.6818 738.237 45.6818C737.115 45.6818 736.191 45.973 735.467 46.5554C734.743 47.1378 734.206 47.9013 733.858 48.8459C733.51 49.7905 733.336 50.8097 733.336 51.9034C733.336 52.9972 733.51 54.0128 733.858 54.9503C734.206 55.8878 734.743 56.6442 735.467 57.2195C736.191 57.7947 737.115 58.0824 738.237 58.0824ZM752.004 50.1562V60H749.49V43.6364H751.919V46.1932H752.132C752.515 45.3622 753.098 44.6946 753.879 44.1903C754.66 43.679 755.669 43.4233 756.904 43.4233C758.012 43.4233 758.982 43.6506 759.813 44.1051C760.644 44.5526 761.29 45.2344 761.752 46.1506C762.213 47.0597 762.444 48.2102 762.444 49.6023V60H759.93V49.7727C759.93 48.4872 759.596 47.4858 758.929 46.7685C758.261 46.044 757.345 45.6818 756.18 45.6818C755.377 45.6818 754.66 45.8558 754.028 46.2038C753.403 46.5518 752.909 47.0597 752.547 47.7273C752.185 48.3949 752.004 49.2045 752.004 50.1562ZM774.155 43.6364V45.767H765.675V43.6364H774.155ZM768.146 39.7159H770.661V55.3125C770.661 56.0227 770.764 56.5554 770.97 56.9105C771.183 57.2585 771.453 57.4929 771.779 57.6136C772.113 57.7273 772.465 57.7841 772.834 57.7841C773.111 57.7841 773.338 57.7699 773.516 57.7415C773.693 57.706 773.835 57.6776 773.942 57.6562L774.453 59.9148C774.283 59.9787 774.045 60.0426 773.739 60.1065C773.434 60.1776 773.047 60.2131 772.578 60.2131C771.868 60.2131 771.172 60.0604 770.49 59.755C769.815 59.4496 769.254 58.9844 768.807 58.3594C768.367 57.7344 768.146 56.946 768.146 55.9943V39.7159ZM786.715 60V38.1818H794.343C795.863 38.1818 797.117 38.4446 798.104 38.9702C799.091 39.4886 799.826 40.1882 800.309 41.0689C800.792 41.9425 801.033 42.9119 801.033 43.9773C801.033 44.9148 800.867 45.6889 800.533 46.2997C800.206 46.9105 799.773 47.3935 799.233 47.7486C798.7 48.1037 798.122 48.3665 797.497 48.5369V48.75C798.164 48.7926 798.835 49.027 799.51 49.4531C800.185 49.8793 800.749 50.4901 801.204 51.2855C801.658 52.081 801.886 53.054 801.886 54.2045C801.886 55.2983 801.637 56.282 801.14 57.1555C800.643 58.0291 799.858 58.7216 798.786 59.233C797.713 59.7443 796.318 60 794.599 60H786.715ZM789.357 57.6562H794.599C796.325 57.6562 797.55 57.3224 798.274 56.6548C799.006 55.9801 799.372 55.1634 799.372 54.2045C799.372 53.4659 799.183 52.7841 798.807 52.1591C798.43 51.527 797.894 51.0227 797.198 50.6463C796.502 50.2628 795.678 50.071 794.727 50.071H789.357V57.6562ZM789.357 47.7699H794.258C795.053 47.7699 795.771 47.6136 796.41 47.3011C797.056 46.9886 797.568 46.5483 797.944 45.9801C798.328 45.4119 798.519 44.7443 798.519 43.9773C798.519 43.0185 798.185 42.2053 797.518 41.5376C796.85 40.8629 795.792 40.5256 794.343 40.5256H789.357V47.7699ZM812.747 60.3409C811.17 60.3409 809.81 59.9929 808.667 59.2969C807.53 58.5938 806.653 57.6136 806.035 56.3565C805.424 55.0923 805.119 53.6222 805.119 51.946C805.119 50.2699 805.424 48.7926 806.035 47.5142C806.653 46.2287 807.513 45.2273 808.613 44.5099C809.721 43.7855 811.014 43.4233 812.491 43.4233C813.343 43.4233 814.185 43.5653 815.016 43.8494C815.847 44.1335 816.603 44.5952 817.285 45.2344C817.967 45.8665 818.51 46.7045 818.915 47.7486C819.32 48.7926 819.522 50.0781 819.522 51.6051V52.6705H806.909V50.4972H816.966C816.966 49.5739 816.781 48.75 816.412 48.0256C816.049 47.3011 815.531 46.7294 814.856 46.3104C814.189 45.8913 813.4 45.6818 812.491 45.6818C811.49 45.6818 810.623 45.9304 809.892 46.4276C809.167 46.9176 808.61 47.5568 808.219 48.3452C807.829 49.1335 807.633 49.9787 807.633 50.8807V52.3295C807.633 53.5653 807.846 54.6129 808.272 55.4723C808.706 56.3246 809.306 56.9744 810.073 57.4219C810.84 57.8622 811.731 58.0824 812.747 58.0824C813.407 58.0824 814.004 57.9901 814.537 57.8054C815.076 57.6136 815.542 57.3295 815.932 56.9531C816.323 56.5696 816.625 56.0937 816.838 55.5256L819.267 56.2074C819.011 57.0312 818.581 57.7557 817.978 58.3807C817.374 58.9986 816.628 59.4815 815.741 59.8295C814.853 60.1705 813.855 60.3409 812.747 60.3409ZM828.162 60.3835C827.125 60.3835 826.184 60.1882 825.339 59.7976C824.494 59.3999 823.823 58.8281 823.326 58.0824C822.829 57.3295 822.58 56.4205 822.58 55.3551C822.58 54.4176 822.765 53.6577 823.134 53.0753C823.503 52.4858 823.997 52.0241 824.615 51.6903C825.233 51.3565 825.915 51.108 826.66 50.9446C827.413 50.7741 828.169 50.6392 828.929 50.5398C829.924 50.4119 830.73 50.3161 831.348 50.2521C831.973 50.1811 832.427 50.0639 832.711 49.9006C833.003 49.7372 833.148 49.4531 833.148 49.0483V48.9631C833.148 47.9119 832.861 47.0952 832.285 46.5128C831.717 45.9304 830.854 45.6392 829.696 45.6392C828.496 45.6392 827.555 45.902 826.873 46.4276C826.191 46.9531 825.712 47.5142 825.435 48.1108L823.049 47.2585C823.475 46.2642 824.043 45.4901 824.753 44.9361C825.471 44.375 826.252 43.9844 827.097 43.7642C827.949 43.5369 828.787 43.4233 829.611 43.4233C830.137 43.4233 830.741 43.4872 831.422 43.6151C832.111 43.7358 832.775 43.9879 833.415 44.3714C834.061 44.755 834.597 45.3338 835.023 46.108C835.449 46.8821 835.662 47.919 835.662 49.2188V60H833.148V57.7841H833.02C832.85 58.1392 832.566 58.5192 832.168 58.924C831.77 59.3288 831.241 59.6733 830.581 59.9574C829.92 60.2415 829.114 60.3835 828.162 60.3835ZM828.546 58.125C829.54 58.125 830.378 57.9297 831.06 57.5391C831.749 57.1484 832.267 56.6442 832.616 56.0263C832.971 55.4084 833.148 54.7585 833.148 54.0767V51.7756C833.042 51.9034 832.807 52.0206 832.445 52.1271C832.09 52.2266 831.678 52.3153 831.209 52.3935C830.748 52.4645 830.297 52.5284 829.856 52.5852C829.423 52.6349 829.071 52.6776 828.802 52.7131C828.148 52.7983 827.537 52.9368 826.969 53.1286C826.408 53.3132 825.954 53.5937 825.606 53.9702C825.265 54.3395 825.094 54.8437 825.094 55.483C825.094 56.3565 825.417 57.017 826.064 57.4645C826.717 57.9048 827.544 58.125 828.546 58.125ZM846.899 60.3409C845.365 60.3409 844.044 59.9787 842.936 59.2543C841.828 58.5298 840.976 57.532 840.379 56.2607C839.783 54.9893 839.484 53.5369 839.484 51.9034C839.484 50.2415 839.79 48.7749 840.4 47.5036C841.018 46.2251 841.878 45.2273 842.979 44.5099C844.087 43.7855 845.379 43.4233 846.856 43.4233C848.007 43.4233 849.044 43.6364 849.967 44.0625C850.891 44.4886 851.647 45.0852 852.236 45.8523C852.826 46.6193 853.192 47.5142 853.334 48.5369H850.82C850.628 47.7912 850.202 47.1307 849.541 46.5554C848.888 45.973 848.007 45.6818 846.899 45.6818C845.919 45.6818 845.06 45.9375 844.321 46.4489C843.589 46.9531 843.018 47.6669 842.606 48.5902C842.201 49.5064 841.998 50.5824 841.998 51.8182C841.998 53.0824 842.197 54.1832 842.595 55.1207C843 56.0582 843.568 56.7862 844.3 57.3047C845.038 57.8232 845.905 58.0824 846.899 58.0824C847.552 58.0824 848.146 57.9688 848.678 57.7415C849.211 57.5142 849.662 57.1875 850.031 56.7614C850.4 56.3352 850.663 55.8239 850.82 55.2273H853.334C853.192 56.1932 852.84 57.0632 852.279 57.8374C851.725 58.6044 850.99 59.2152 850.074 59.6697C849.165 60.1172 848.106 60.3409 846.899 60.3409ZM859.523 50.1562V60H857.009V38.1818H859.523V46.1932H859.736C860.12 45.348 860.695 44.6768 861.462 44.1797C862.236 43.6754 863.266 43.4233 864.552 43.4233C865.667 43.4233 866.643 43.647 867.481 44.0945C868.32 44.5348 868.969 45.2131 869.431 46.1293C869.9 47.0384 870.134 48.196 870.134 49.6023V60H867.62V49.7727C867.62 48.473 867.283 47.468 866.608 46.7578C865.94 46.0405 865.013 45.6818 863.827 45.6818C863.003 45.6818 862.265 45.8558 861.611 46.2038C860.965 46.5518 860.454 47.0597 860.077 47.7273C859.708 48.3949 859.523 49.2045 859.523 50.1562ZM890.501 60.2983C889.095 60.2983 887.841 60.0568 886.74 59.5739C885.646 59.0909 884.776 58.4197 884.13 57.5604C883.491 56.6939 883.143 55.6889 883.086 54.5455H885.771C885.828 55.2486 886.069 55.8558 886.495 56.3672C886.921 56.8714 887.479 57.2621 888.168 57.5391C888.857 57.8161 889.62 57.9545 890.458 57.9545C891.396 57.9545 892.227 57.7912 892.951 57.4645C893.676 57.1378 894.244 56.6832 894.656 56.1009C895.068 55.5185 895.274 54.8438 895.274 54.0767C895.274 53.2741 895.075 52.5675 894.677 51.9567C894.279 51.3388 893.697 50.8558 892.93 50.5078C892.163 50.1598 891.225 49.9858 890.117 49.9858H888.37V47.642H890.117C890.984 47.642 891.744 47.4858 892.397 47.1733C893.058 46.8608 893.573 46.4205 893.942 45.8523C894.318 45.2841 894.506 44.6165 894.506 43.8494C894.506 43.1108 894.343 42.468 894.016 41.9212C893.69 41.3743 893.228 40.9482 892.631 40.6428C892.042 40.3374 891.346 40.1847 890.543 40.1847C889.791 40.1847 889.08 40.3232 888.413 40.6001C887.752 40.87 887.212 41.2642 886.793 41.7827C886.374 42.294 886.147 42.9119 886.112 43.6364H883.555C883.597 42.4929 883.942 41.4915 884.588 40.6321C885.234 39.7656 886.08 39.0909 887.124 38.608C888.175 38.125 889.329 37.8835 890.586 37.8835C891.935 37.8835 893.093 38.157 894.059 38.7038C895.025 39.2436 895.767 39.9574 896.286 40.8452C896.804 41.733 897.063 42.6918 897.063 43.7216C897.063 44.9503 896.74 45.9979 896.094 46.8643C895.455 47.7308 894.585 48.331 893.484 48.6648V48.8352C894.862 49.0625 895.938 49.6484 896.712 50.593C897.486 51.5305 897.873 52.6918 897.873 54.0767C897.873 55.2628 897.55 56.3281 896.903 57.2727C896.264 58.2102 895.391 58.9489 894.283 59.4886C893.175 60.0284 891.914 60.2983 890.501 60.2983ZM911.051 60V38.1818H918.679C920.199 38.1818 921.453 38.4446 922.44 38.9702C923.427 39.4886 924.162 40.1882 924.645 41.0689C925.128 41.9425 925.369 42.9119 925.369 43.9773C925.369 44.9148 925.203 45.6889 924.869 46.2997C924.542 46.9105 924.109 47.3935 923.569 47.7486C923.036 48.1037 922.457 48.3665 921.832 48.5369V48.75C922.5 48.7926 923.171 49.027 923.846 49.4531C924.521 49.8793 925.085 50.4901 925.54 51.2855C925.994 52.081 926.222 53.054 926.222 54.2045C926.222 55.2983 925.973 56.282 925.476 57.1555C924.979 58.0291 924.194 58.7216 923.122 59.233C922.049 59.7443 920.653 60 918.935 60H911.051ZM913.693 57.6562H918.935C920.661 57.6562 921.886 57.3224 922.61 56.6548C923.342 55.9801 923.707 55.1634 923.707 54.2045C923.707 53.4659 923.519 52.7841 923.143 52.1591C922.766 51.527 922.23 51.0227 921.534 50.6463C920.838 50.2628 920.014 50.071 919.063 50.071H913.693V57.6562ZM913.693 47.7699H918.594C919.389 47.7699 920.107 47.6136 920.746 47.3011C921.392 46.9886 921.903 46.5483 922.28 45.9801C922.663 45.4119 922.855 44.7443 922.855 43.9773C922.855 43.0185 922.521 42.2053 921.854 41.5376C921.186 40.8629 920.128 40.5256 918.679 40.5256H913.693V47.7699ZM937.083 60.3409C935.506 60.3409 934.146 59.9929 933.003 59.2969C931.866 58.5938 930.989 57.6136 930.371 56.3565C929.76 55.0923 929.455 53.6222 929.455 51.946C929.455 50.2699 929.76 48.7926 930.371 47.5142C930.989 46.2287 931.848 45.2273 932.949 44.5099C934.057 43.7855 935.35 43.4233 936.827 43.4233C937.679 43.4233 938.521 43.5653 939.352 43.8494C940.183 44.1335 940.939 44.5952 941.621 45.2344C942.303 45.8665 942.846 46.7045 943.251 47.7486C943.656 48.7926 943.858 50.0781 943.858 51.6051V52.6705H931.245V50.4972H941.302C941.302 49.5739 941.117 48.75 940.748 48.0256C940.385 47.3011 939.867 46.7294 939.192 46.3104C938.525 45.8913 937.736 45.6818 936.827 45.6818C935.826 45.6818 934.959 45.9304 934.228 46.4276C933.503 46.9176 932.946 47.5568 932.555 48.3452C932.165 49.1335 931.969 49.9787 931.969 50.8807V52.3295C931.969 53.5653 932.182 54.6129 932.608 55.4723C933.042 56.3246 933.642 56.9744 934.409 57.4219C935.176 57.8622 936.067 58.0824 937.083 58.0824C937.743 58.0824 938.34 57.9901 938.873 57.8054C939.412 57.6136 939.878 57.3295 940.268 56.9531C940.659 56.5696 940.961 56.0937 941.174 55.5256L943.603 56.2074C943.347 57.0312 942.917 57.7557 942.314 58.3807C941.71 58.9986 940.964 59.4815 940.076 59.8295C939.189 60.1705 938.191 60.3409 937.083 60.3409ZM953.862 60.3409C952.498 60.3409 951.294 59.9964 950.25 59.3075C949.206 58.6115 948.39 57.6314 947.8 56.3672C947.211 55.0959 946.916 53.5938 946.916 51.8608C946.916 50.142 947.211 48.6506 947.8 47.3864C948.39 46.1222 949.21 45.1456 950.261 44.4567C951.312 43.7678 952.527 43.4233 953.905 43.4233C954.97 43.4233 955.812 43.6009 956.429 43.956C957.054 44.304 957.53 44.7017 957.857 45.1491C958.191 45.5895 958.45 45.9517 958.635 46.2358H958.848V38.1818H961.362V60H958.933V57.4858H958.635C958.45 57.7841 958.187 58.1605 957.846 58.6151C957.505 59.0625 957.019 59.4638 956.387 59.8189C955.755 60.1669 954.913 60.3409 953.862 60.3409ZM954.203 58.0824C955.211 58.0824 956.064 57.8196 956.76 57.294C957.456 56.7614 957.985 56.0263 958.347 55.0888C958.709 54.1442 958.89 53.054 958.89 51.8182C958.89 50.5966 958.713 49.5277 958.358 48.6115C958.003 47.6882 957.477 46.9709 956.781 46.4595C956.085 45.9411 955.226 45.6818 954.203 45.6818C953.138 45.6818 952.25 45.9553 951.54 46.5021C950.836 47.0419 950.307 47.777 949.952 48.7074C949.604 49.6307 949.43 50.6676 949.43 51.8182C949.43 52.983 949.608 54.0412 949.963 54.9929C950.325 55.9375 950.858 56.6903 951.561 57.2514C952.271 57.8054 953.152 58.0824 954.203 58.0824ZM966.316 60V43.6364H968.745V46.108H968.915C969.214 45.2983 969.753 44.6413 970.535 44.1371C971.316 43.6328 972.196 43.3807 973.177 43.3807C973.361 43.3807 973.592 43.3842 973.869 43.3913C974.146 43.3984 974.356 43.4091 974.498 43.4233V45.9801C974.412 45.9588 974.217 45.9268 973.912 45.8842C973.613 45.8345 973.297 45.8097 972.964 45.8097C972.168 45.8097 971.458 45.9766 970.833 46.3104C970.215 46.6371 969.725 47.0916 969.363 47.674C969.008 48.2493 968.83 48.9062 968.83 49.6449V60H966.316ZM983.628 60.3409C982.15 60.3409 980.854 59.9893 979.739 59.2862C978.631 58.5831 977.765 57.5994 977.14 56.3352C976.522 55.071 976.213 53.5937 976.213 51.9034C976.213 50.1989 976.522 48.7109 977.14 47.4396C977.765 46.1683 978.631 45.1811 979.739 44.478C980.854 43.7749 982.15 43.4233 983.628 43.4233C985.105 43.4233 986.397 43.7749 987.505 44.478C988.62 45.1811 989.487 46.1683 990.105 47.4396C990.73 48.7109 991.042 50.1989 991.042 51.9034C991.042 53.5937 990.73 55.071 990.105 56.3352C989.487 57.5994 988.62 58.5831 987.505 59.2862C986.397 59.9893 985.105 60.3409 983.628 60.3409ZM983.628 58.0824C984.75 58.0824 985.673 57.7947 986.397 57.2195C987.122 56.6442 987.658 55.8878 988.006 54.9503C988.354 54.0128 988.528 52.9972 988.528 51.9034C988.528 50.8097 988.354 49.7905 988.006 48.8459C987.658 47.9013 987.122 47.1378 986.397 46.5554C985.673 45.973 984.75 45.6818 983.628 45.6818C982.505 45.6818 981.582 45.973 980.858 46.5554C980.133 47.1378 979.597 47.9013 979.249 48.8459C978.901 49.7905 978.727 50.8097 978.727 51.9034C978.727 52.9972 978.901 54.0128 979.249 54.9503C979.597 55.8878 980.133 56.6442 980.858 57.2195C981.582 57.7947 982.505 58.0824 983.628 58.0824ZM1001.53 60.3409C1000.05 60.3409 998.755 59.9893 997.639 59.2862C996.532 58.5831 995.665 57.5994 995.04 56.3352C994.422 55.071 994.113 53.5937 994.113 51.9034C994.113 50.1989 994.422 48.7109 995.04 47.4396C995.665 46.1683 996.532 45.1811 997.639 44.478C998.755 43.7749 1000.05 43.4233 1001.53 43.4233C1003.01 43.4233 1004.3 43.7749 1005.41 44.478C1006.52 45.1811 1007.39 46.1683 1008.01 47.4396C1008.63 48.7109 1008.94 50.1989 1008.94 51.9034C1008.94 53.5937 1008.63 55.071 1008.01 56.3352C1007.39 57.5994 1006.52 58.5831 1005.41 59.2862C1004.3 59.9893 1003.01 60.3409 1001.53 60.3409ZM1001.53 58.0824C1002.65 58.0824 1003.57 57.7947 1004.3 57.2195C1005.02 56.6442 1005.56 55.8878 1005.91 54.9503C1006.25 54.0128 1006.43 52.9972 1006.43 51.9034C1006.43 50.8097 1006.25 49.7905 1005.91 48.8459C1005.56 47.9013 1005.02 47.1378 1004.3 46.5554C1003.57 45.973 1002.65 45.6818 1001.53 45.6818C1000.41 45.6818 999.483 45.973 998.758 46.5554C998.034 47.1378 997.497 47.9013 997.149 48.8459C996.801 49.7905 996.627 50.8097 996.627 51.9034C996.627 52.9972 996.801 54.0128 997.149 54.9503C997.497 55.8878 998.034 56.6442 998.758 57.2195C999.483 57.7947 1000.41 58.0824 1001.53 58.0824ZM1012.78 60V43.6364H1015.21V46.1932H1015.42C1015.76 45.3196 1016.31 44.6413 1017.07 44.1584C1017.83 43.6683 1018.75 43.4233 1019.81 43.4233C1020.89 43.4233 1021.79 43.6683 1022.51 44.1584C1023.23 44.6413 1023.8 45.3196 1024.2 46.1932H1024.37C1024.79 45.348 1025.42 44.6768 1026.26 44.1797C1027.1 43.6754 1028.1 43.4233 1029.27 43.4233C1030.74 43.4233 1031.93 43.8814 1032.86 44.7976C1033.79 45.7067 1034.26 47.1236 1034.26 49.0483V60H1031.74V49.0483C1031.74 47.8409 1031.41 46.978 1030.75 46.4595C1030.09 45.9411 1029.31 45.6818 1028.42 45.6818C1027.27 45.6818 1026.38 46.0298 1025.75 46.7259C1025.11 47.4148 1024.8 48.2884 1024.8 49.3466V60H1022.24V48.7926C1022.24 47.8622 1021.94 47.1129 1021.34 46.5447C1020.73 45.9695 1019.95 45.6818 1019 45.6818C1018.35 45.6818 1017.74 45.8558 1017.17 46.2038C1016.61 46.5518 1016.15 47.0348 1015.81 47.6527C1015.47 48.2635 1015.29 48.9702 1015.29 49.7727V60H1012.78ZM1050.45 47.3011L1048.19 47.9403C1048.05 47.5639 1047.84 47.1982 1047.56 46.843C1047.29 46.4808 1046.92 46.1825 1046.45 45.9482C1045.98 45.7138 1045.38 45.5966 1044.65 45.5966C1043.65 45.5966 1042.81 45.8274 1042.15 46.2891C1041.49 46.7436 1041.16 47.3224 1041.16 48.0256C1041.16 48.6506 1041.38 49.1442 1041.84 49.5064C1042.29 49.8686 1043 50.1705 1043.97 50.4119L1046.4 51.0085C1047.86 51.3636 1048.95 51.907 1049.67 52.6385C1050.39 53.3629 1050.74 54.2969 1050.74 55.4403C1050.74 56.3778 1050.47 57.2159 1049.93 57.9545C1049.4 58.6932 1048.66 59.2756 1047.7 59.7017C1046.74 60.1278 1045.62 60.3409 1044.35 60.3409C1042.68 60.3409 1041.3 59.9787 1040.21 59.2543C1039.11 58.5298 1038.42 57.4716 1038.13 56.0795L1040.52 55.483C1040.74 56.3636 1041.17 57.0241 1041.81 57.4645C1042.45 57.9048 1043.28 58.125 1044.31 58.125C1045.48 58.125 1046.41 57.8764 1047.1 57.3793C1047.8 56.875 1048.14 56.2713 1048.14 55.5682C1048.14 55 1047.95 54.5241 1047.55 54.1406C1047.15 53.75 1046.54 53.4588 1045.72 53.267L1042.99 52.6278C1041.49 52.2727 1040.39 51.7223 1039.69 50.9766C1038.99 50.2237 1038.64 49.2827 1038.64 48.1534C1038.64 47.2301 1038.9 46.4134 1039.42 45.7031C1039.95 44.9929 1040.66 44.4354 1041.56 44.0305C1042.47 43.6257 1043.5 43.4233 1044.65 43.4233C1046.27 43.4233 1047.54 43.7784 1048.46 44.4886C1049.39 45.1989 1050.06 46.1364 1050.45 47.3011Z" fill="#010101"/>
<path d="M1108.64 34.0554C1107.42 34.2965 1106.28 35.1806 1105.67 36.3459C1105.39 36.875 1105.07 37.9733 1105.07 38.3752C1105.07 38.5761 1105.04 38.6029 1104.86 38.6431C1104.18 38.7837 1103.33 39.5003 1103.02 40.1835C1102.67 40.9603 1102.67 41.7841 1103.03 41.9515C1103.15 41.9984 1103.96 42.0252 1105.68 42.0252H1108.16L1108.32 41.8578C1108.46 41.7238 1108.49 41.6301 1108.49 41.2885C1108.49 40.5451 1108.14 39.7816 1107.56 39.2592C1107.27 39.0047 1106.77 38.7234 1106.46 38.6498C1106.28 38.6096 1106.27 38.5962 1106.32 38.2881C1106.54 36.7812 1107.55 35.5623 1108.83 35.2676C1109.32 35.1538 1110.15 35.1806 1110.7 35.3346C1112.04 35.703 1113.15 36.8549 1113.48 38.2145C1113.56 38.5828 1113.58 39.5405 1113.58 44.8849V51.1335H1105C1096.68 51.1335 1096.43 51.1268 1096.43 51.0063C1096.43 50.9393 1096.32 50.6714 1096.2 50.4102C1095.76 49.5529 1094.94 48.9636 1094.05 48.8698C1093.77 48.843 1093.67 48.7895 1093.35 48.5015C1092.24 47.4902 1090.63 47.4232 1089.5 48.3474C1089.29 48.5216 1088.9 48.9971 1088.83 49.1712C1088.82 49.1846 1088.66 49.131 1088.47 49.0573C1087.42 48.6555 1086.2 48.8497 1085.41 49.5329C1085.08 49.8275 1084.68 50.4437 1084.59 50.8187C1084.52 51.1134 1084.51 51.1134 1084.18 51.1536C1083.78 51.2005 1083.55 51.3143 1083.24 51.6157C1082.91 51.9439 1082.77 52.2921 1082.77 52.8279C1082.77 53.5579 1083.04 54.0468 1083.63 54.3683C1083.91 54.5223 1084.09 54.5625 1084.56 54.596L1085.15 54.6362L1085.88 57.5227C1086.27 59.11 1086.67 60.6436 1086.76 60.9249C1087.28 62.5524 1088.86 63.7244 1090.53 63.7244H1091L1090.6 64.5348C1090.38 64.9835 1090.2 65.4255 1090.2 65.5126C1090.2 65.7671 1090.48 66.0015 1090.8 66.0015C1091.15 66.0015 1091.25 65.8675 1091.84 64.6754L1092.31 63.7244H1100.21H1108.12L1108.65 64.8027C1108.95 65.392 1109.24 65.9077 1109.3 65.9412C1109.36 65.9747 1109.5 66.0015 1109.61 66.0015C1109.87 66.0015 1110.16 65.6733 1110.16 65.392C1110.16 65.2849 1109.99 64.8696 1109.8 64.4678L1109.43 63.7378L1109.77 63.6976C1111.23 63.5034 1112.6 62.405 1113.05 61.0589C1113.09 60.9249 1113.48 59.4247 1113.91 57.7303L1114.69 54.6496L1115.28 54.6027C1116.46 54.5022 1117.06 53.8995 1117.06 52.8279C1117.06 52.2921 1116.92 51.9439 1116.58 51.6157C1116.22 51.2608 1116.01 51.1804 1115.37 51.1469L1114.78 51.1201V44.8247C1114.78 37.6787 1114.8 37.9733 1114.25 36.8281C1113.58 35.4418 1112.31 34.4439 1110.76 34.0889C1110.29 33.9818 1109.11 33.9684 1108.64 34.0554ZM1106.51 39.9758C1106.78 40.1433 1107.21 40.6188 1107.21 40.7661C1107.21 40.7929 1106.52 40.8197 1105.67 40.8197C1104.42 40.8197 1104.13 40.7996 1104.13 40.7259C1104.13 40.6791 1104.25 40.4982 1104.4 40.3308C1104.93 39.7347 1105.83 39.5874 1106.51 39.9758ZM1092.19 49.0774C1092.43 49.198 1092.71 49.486 1092.87 49.7405C1093 49.9548 1093.24 50.0418 1093.72 50.0552C1094.27 50.0619 1094.7 50.2896 1095.03 50.7518C1095.14 50.8991 1095.23 51.0464 1095.23 51.0799C1095.23 51.1067 1093.1 51.1335 1090.5 51.1335H1085.78L1085.91 50.879C1086.17 50.37 1086.7 50.0686 1087.34 50.0619C1087.78 50.0619 1088.17 50.216 1088.58 50.5709C1088.89 50.8321 1089.16 50.9058 1089.39 50.7852C1089.59 50.6848 1089.62 50.6178 1089.81 50.1088C1090.12 49.2449 1090.83 48.8029 1091.69 48.9301C1091.86 48.9569 1092.08 49.0239 1092.19 49.0774ZM1115.7 52.4864C1115.98 52.7475 1115.88 53.2097 1115.51 53.3369C1115.21 53.4441 1084.62 53.4441 1084.32 53.3369C1083.95 53.2097 1083.85 52.781 1084.12 52.4931L1084.26 52.339H1099.91H1115.55L1115.7 52.4864ZM1113.38 54.6898C1113.38 54.9309 1112 60.5432 1111.87 60.8245C1111.53 61.5679 1110.87 62.1505 1110.11 62.3849C1109.68 62.5189 1109.46 62.5189 1099.95 62.5189C1089.37 62.5189 1089.99 62.539 1089.26 62.1371C1088.84 61.9094 1088.33 61.3602 1088.1 60.8914C1087.96 60.6102 1086.45 54.9175 1086.45 54.6831C1086.45 54.6362 1090.76 54.6161 1099.91 54.6161C1109.49 54.6161 1113.38 54.6362 1113.38 54.6898Z" fill="#6E00FF"/>
<path d="M1103.06 43.184C1102.74 43.3447 1102.62 43.9073 1102.83 44.2957C1102.94 44.5167 1103.05 44.5703 1103.4 44.5703C1103.77 44.5703 1103.93 44.3426 1103.93 43.8403C1103.93 43.4452 1103.86 43.3045 1103.62 43.1773C1103.43 43.0768 1103.27 43.0768 1103.06 43.184Z" fill="#6E00FF"/>
<path d="M1105.41 43.1437C1105.08 43.2642 1104.92 43.7531 1105.07 44.1951C1105.16 44.4831 1105.31 44.5702 1105.66 44.5702C1106.04 44.5702 1106.21 44.3626 1106.21 43.8871C1106.21 43.4116 1106.17 43.3178 1105.93 43.1972C1105.74 43.0968 1105.58 43.0767 1105.41 43.1437Z" fill="#6E00FF"/>
<path d="M1107.63 43.1638C1107.27 43.3178 1107.19 44.1483 1107.5 44.4362C1107.7 44.6305 1108.15 44.6171 1108.34 44.4162C1108.53 44.2085 1108.55 43.5254 1108.37 43.3044C1108.24 43.137 1107.86 43.07 1107.63 43.1638Z" fill="#6E00FF"/>
<path d="M1103.06 45.4609C1102.79 45.5949 1102.72 45.8226 1102.74 46.3918C1102.77 47.0348 1102.89 47.2022 1103.34 47.2022C1103.56 47.2022 1103.65 47.162 1103.78 47.0214C1103.91 46.8606 1103.93 46.7669 1103.93 46.2914C1103.92 45.6953 1103.87 45.5547 1103.57 45.4408C1103.34 45.3538 1103.27 45.3538 1103.06 45.4609Z" fill="#6E00FF"/>
<path d="M1105.37 45.4408C1105.14 45.5346 1105.06 45.6953 1105.02 46.1306C1104.98 46.72 1105.08 47.0347 1105.39 47.1553C1105.65 47.2692 1105.84 47.229 1106.06 47.028C1106.19 46.9075 1106.21 46.8271 1106.21 46.3315C1106.21 45.6819 1106.16 45.548 1105.87 45.4475C1105.62 45.3604 1105.56 45.3604 1105.37 45.4408Z" fill="#6E00FF"/>
<path d="M1107.64 45.4745C1107.41 45.5749 1107.28 45.8696 1107.28 46.3116C1107.28 46.7737 1107.4 47.0483 1107.66 47.1555C1107.92 47.2693 1108.12 47.2292 1108.34 47.0282C1108.47 46.9077 1108.49 46.8273 1108.49 46.3317C1108.49 45.6821 1108.43 45.5481 1108.14 45.4477C1107.88 45.3606 1107.9 45.3606 1107.64 45.4745Z" fill="#6E00FF"/>
<path d="M1103.01 48.0327C1102.87 48.0863 1102.73 48.4279 1102.73 48.6757C1102.73 49.3253 1103.14 49.6267 1103.66 49.3588C1103.89 49.2382 1103.93 49.1445 1103.93 48.6823C1103.93 48.2135 1103.74 47.9858 1103.35 47.9925C1103.21 47.9925 1103.05 48.0126 1103.01 48.0327Z" fill="#6E00FF"/>
<path d="M1105.26 48.0528C1105.09 48.1533 1104.98 48.5551 1105.04 48.89C1105.09 49.2918 1105.33 49.4861 1105.71 49.4392C1106.09 49.3856 1106.21 49.2048 1106.21 48.6958C1106.21 48.3475 1106.18 48.2538 1106.06 48.1332C1105.89 47.9725 1105.47 47.9323 1105.26 48.0528Z" fill="#6E00FF"/>
<path d="M1107.48 48.16C1107.35 48.3006 1107.31 48.4011 1107.31 48.7293C1107.31 49.245 1107.48 49.4258 1107.92 49.4258C1108.35 49.4258 1108.49 49.2517 1108.49 48.6958C1108.49 48.3475 1108.46 48.2538 1108.33 48.1332C1108.1 47.9189 1107.69 47.9323 1107.48 48.16Z" fill="#6E00FF"/>
<path d="M1143.15 38.1818H1145.79V53.7784C1145.79 55.1705 1145.53 56.353 1145.02 57.326C1144.51 58.299 1143.79 59.0376 1142.86 59.5419C1141.93 60.0462 1140.83 60.2983 1139.57 60.2983C1138.38 60.2983 1137.31 60.0817 1136.38 59.6484C1135.45 59.2081 1134.72 58.5831 1134.19 57.7734C1133.66 56.9638 1133.39 56.0014 1133.39 54.8864H1135.99C1135.99 55.5043 1136.14 56.044 1136.45 56.5057C1136.76 56.9602 1137.19 57.3153 1137.73 57.571C1138.27 57.8267 1138.88 57.9545 1139.57 57.9545C1140.33 57.9545 1140.98 57.7947 1141.51 57.4751C1142.04 57.1555 1142.45 56.6868 1142.72 56.0689C1143.01 55.4439 1143.15 54.6804 1143.15 53.7784V38.1818ZM1155.56 60.3835C1154.52 60.3835 1153.58 60.1882 1152.74 59.7976C1151.89 59.3999 1151.22 58.8281 1150.72 58.0824C1150.23 57.3295 1149.98 56.4205 1149.98 55.3551C1149.98 54.4176 1150.16 53.6577 1150.53 53.0753C1150.9 52.4858 1151.39 52.0241 1152.01 51.6903C1152.63 51.3565 1153.31 51.108 1154.06 50.9446C1154.81 50.7741 1155.57 50.6392 1156.33 50.5398C1157.32 50.4119 1158.13 50.3161 1158.75 50.2521C1159.37 50.1811 1159.82 50.0639 1160.11 49.9006C1160.4 49.7372 1160.55 49.4531 1160.55 49.0483V48.9631C1160.55 47.9119 1160.26 47.0952 1159.68 46.5128C1159.11 45.9304 1158.25 45.6392 1157.09 45.6392C1155.89 45.6392 1154.95 45.902 1154.27 46.4276C1153.59 46.9531 1153.11 47.5142 1152.83 48.1108L1150.45 47.2585C1150.87 46.2642 1151.44 45.4901 1152.15 44.9361C1152.87 44.375 1153.65 43.9844 1154.49 43.7642C1155.35 43.5369 1156.18 43.4233 1157.01 43.4233C1157.53 43.4233 1158.14 43.4872 1158.82 43.6151C1159.51 43.7358 1160.17 43.9879 1160.81 44.3714C1161.46 44.755 1161.99 45.3338 1162.42 46.108C1162.85 46.8821 1163.06 47.919 1163.06 49.2188V60H1160.55V57.7841H1160.42C1160.25 58.1392 1159.96 58.5192 1159.57 58.924C1159.17 59.3288 1158.64 59.6733 1157.98 59.9574C1157.32 60.2415 1156.51 60.3835 1155.56 60.3835ZM1155.94 58.125C1156.94 58.125 1157.78 57.9297 1158.46 57.5391C1159.15 57.1484 1159.66 56.6442 1160.01 56.0263C1160.37 55.4084 1160.55 54.7585 1160.55 54.0767V51.7756C1160.44 51.9034 1160.2 52.0206 1159.84 52.1271C1159.49 52.2266 1159.08 52.3153 1158.61 52.3935C1158.15 52.4645 1157.69 52.5284 1157.25 52.5852C1156.82 52.6349 1156.47 52.6776 1156.2 52.7131C1155.55 52.7983 1154.93 52.9368 1154.37 53.1286C1153.81 53.3132 1153.35 53.5937 1153 53.9702C1152.66 54.3395 1152.49 54.8437 1152.49 55.483C1152.49 56.3565 1152.81 57.017 1153.46 57.4645C1154.11 57.9048 1154.94 58.125 1155.94 58.125ZM1174.3 60.3409C1172.76 60.3409 1171.44 59.9787 1170.33 59.2543C1169.23 58.5298 1168.37 57.532 1167.78 56.2607C1167.18 54.9893 1166.88 53.5369 1166.88 51.9034C1166.88 50.2415 1167.19 48.7749 1167.8 47.5036C1168.42 46.2251 1169.28 45.2273 1170.38 44.5099C1171.48 43.7855 1172.78 43.4233 1174.25 43.4233C1175.4 43.4233 1176.44 43.6364 1177.36 44.0625C1178.29 44.4886 1179.04 45.0852 1179.63 45.8523C1180.22 46.6193 1180.59 47.5142 1180.73 48.5369H1178.22C1178.03 47.7912 1177.6 47.1307 1176.94 46.5554C1176.29 45.973 1175.4 45.6818 1174.3 45.6818C1173.32 45.6818 1172.46 45.9375 1171.72 46.4489C1170.99 46.9531 1170.42 47.6669 1170 48.5902C1169.6 49.5064 1169.4 50.5824 1169.4 51.8182C1169.4 53.0824 1169.59 54.1832 1169.99 55.1207C1170.4 56.0582 1170.97 56.7862 1171.7 57.3047C1172.44 57.8232 1173.3 58.0824 1174.3 58.0824C1174.95 58.0824 1175.54 57.9688 1176.08 57.7415C1176.61 57.5142 1177.06 57.1875 1177.43 56.7614C1177.8 56.3352 1178.06 55.8239 1178.22 55.2273H1180.73C1180.59 56.1932 1180.24 57.0632 1179.68 57.8374C1179.12 58.6044 1178.39 59.2152 1177.47 59.6697C1176.56 60.1172 1175.5 60.3409 1174.3 60.3409ZM1194.72 53.3097V43.6364H1197.23V60H1194.72V57.2301H1194.55C1194.17 58.0611 1193.57 58.7678 1192.76 59.3501C1191.95 59.9254 1190.93 60.2131 1189.69 60.2131C1188.67 60.2131 1187.76 59.9893 1186.96 59.5419C1186.17 59.0874 1185.54 58.4055 1185.09 57.4964C1184.63 56.5803 1184.41 55.4261 1184.41 54.0341V43.6364H1186.92V53.8636C1186.92 55.0568 1187.25 56.0085 1187.92 56.7188C1188.6 57.429 1189.46 57.7841 1190.5 57.7841C1191.13 57.7841 1191.76 57.6243 1192.41 57.3047C1193.06 56.9851 1193.61 56.495 1194.05 55.8345C1194.5 55.174 1194.72 54.3324 1194.72 53.3097ZM1201.37 60V58.0824L1210.66 46.1506V45.9801H1201.67V43.6364H1213.9V45.6392L1204.86 57.4858V57.6562H1214.2V60H1201.37ZM1217.6 60V58.0824L1226.89 46.1506V45.9801H1217.9V43.6364H1230.13V45.6392L1221.09 57.4858V57.6562H1230.43V60H1217.6ZM1234.3 60V43.6364H1236.81V60H1234.3ZM1235.58 40.9091C1235.09 40.9091 1234.66 40.7422 1234.31 40.4084C1233.96 40.0746 1233.79 39.6733 1233.79 39.2045C1233.79 38.7358 1233.96 38.3345 1234.31 38.0007C1234.66 37.6669 1235.09 37.5 1235.58 37.5C1236.07 37.5 1236.49 37.6669 1236.83 38.0007C1237.19 38.3345 1237.37 38.7358 1237.37 39.2045C1237.37 39.6733 1237.19 40.0746 1236.83 40.4084C1236.49 40.7422 1236.07 40.9091 1235.58 40.9091ZM1257.19 60.2983C1255.78 60.2983 1254.53 60.0568 1253.42 59.5739C1252.33 59.0909 1251.46 58.4197 1250.81 57.5604C1250.18 56.6939 1249.83 55.6889 1249.77 54.5455H1252.46C1252.51 55.2486 1252.75 55.8558 1253.18 56.3672C1253.61 56.8714 1254.16 57.2621 1254.85 57.5391C1255.54 57.8161 1256.3 57.9545 1257.14 57.9545C1258.08 57.9545 1258.91 57.7912 1259.64 57.4645C1260.36 57.1378 1260.93 56.6832 1261.34 56.1009C1261.75 55.5185 1261.96 54.8438 1261.96 54.0767C1261.96 53.2741 1261.76 52.5675 1261.36 51.9567C1260.96 51.3388 1260.38 50.8558 1259.61 50.5078C1258.85 50.1598 1257.91 49.9858 1256.8 49.9858H1255.05V47.642H1256.8C1257.67 47.642 1258.43 47.4858 1259.08 47.1733C1259.74 46.8608 1260.26 46.4205 1260.63 45.8523C1261 45.2841 1261.19 44.6165 1261.19 43.8494C1261.19 43.1108 1261.03 42.468 1260.7 41.9212C1260.37 41.3743 1259.91 40.9482 1259.32 40.6428C1258.73 40.3374 1258.03 40.1847 1257.23 40.1847C1256.48 40.1847 1255.76 40.3232 1255.1 40.6001C1254.44 40.87 1253.9 41.2642 1253.48 41.7827C1253.06 42.294 1252.83 42.9119 1252.8 43.6364H1250.24C1250.28 42.4929 1250.63 41.4915 1251.27 40.6321C1251.92 39.7656 1252.76 39.0909 1253.81 38.608C1254.86 38.125 1256.01 37.8835 1257.27 37.8835C1258.62 37.8835 1259.78 38.157 1260.74 38.7038C1261.71 39.2436 1262.45 39.9574 1262.97 40.8452C1263.49 41.733 1263.75 42.6918 1263.75 43.7216C1263.75 44.9503 1263.42 45.9979 1262.78 46.8643C1262.14 47.7308 1261.27 48.331 1260.17 48.6648V48.8352C1261.55 49.0625 1262.62 49.6484 1263.4 50.593C1264.17 51.5305 1264.56 52.6918 1264.56 54.0767C1264.56 55.2628 1264.23 56.3281 1263.59 57.2727C1262.95 58.2102 1262.08 58.9489 1260.97 59.4886C1259.86 60.0284 1258.6 60.2983 1257.19 60.2983ZM1277.74 60V38.1818H1285.36C1286.88 38.1818 1288.14 38.4446 1289.12 38.9702C1290.11 39.4886 1290.85 40.1882 1291.33 41.0689C1291.81 41.9425 1292.05 42.9119 1292.05 43.9773C1292.05 44.9148 1291.89 45.6889 1291.55 46.2997C1291.23 46.9105 1290.79 47.3935 1290.25 47.7486C1289.72 48.1037 1289.14 48.3665 1288.52 48.5369V48.75C1289.18 48.7926 1289.86 49.027 1290.53 49.4531C1291.21 49.8793 1291.77 50.4901 1292.22 51.2855C1292.68 52.081 1292.91 53.054 1292.91 54.2045C1292.91 55.2983 1292.66 56.282 1292.16 57.1555C1291.66 58.0291 1290.88 58.7216 1289.81 59.233C1288.73 59.7443 1287.34 60 1285.62 60H1277.74ZM1280.38 57.6562H1285.62C1287.35 57.6562 1288.57 57.3224 1289.29 56.6548C1290.03 55.9801 1290.39 55.1634 1290.39 54.2045C1290.39 53.4659 1290.2 52.7841 1289.83 52.1591C1289.45 51.527 1288.91 51.0227 1288.22 50.6463C1287.52 50.2628 1286.7 50.071 1285.75 50.071H1280.38V57.6562ZM1280.38 47.7699H1285.28C1286.07 47.7699 1286.79 47.6136 1287.43 47.3011C1288.08 46.9886 1288.59 46.5483 1288.96 45.9801C1289.35 45.4119 1289.54 44.7443 1289.54 43.9773C1289.54 43.0185 1289.21 42.2053 1288.54 41.5376C1287.87 40.8629 1286.81 40.5256 1285.36 40.5256H1280.38V47.7699ZM1301.72 60.3835C1300.69 60.3835 1299.74 60.1882 1298.9 59.7976C1298.05 59.3999 1297.38 58.8281 1296.89 58.0824C1296.39 57.3295 1296.14 56.4205 1296.14 55.3551C1296.14 54.4176 1296.32 53.6577 1296.69 53.0753C1297.06 52.4858 1297.56 52.0241 1298.17 51.6903C1298.79 51.3565 1299.47 51.108 1300.22 50.9446C1300.97 50.7741 1301.73 50.6392 1302.49 50.5398C1303.48 50.4119 1304.29 50.3161 1304.91 50.2521C1305.53 50.1811 1305.99 50.0639 1306.27 49.9006C1306.56 49.7372 1306.71 49.4531 1306.71 49.0483V48.9631C1306.71 47.9119 1306.42 47.0952 1305.84 46.5128C1305.28 45.9304 1304.41 45.6392 1303.26 45.6392C1302.06 45.6392 1301.11 45.902 1300.43 46.4276C1299.75 46.9531 1299.27 47.5142 1298.99 48.1108L1296.61 47.2585C1297.03 46.2642 1297.6 45.4901 1298.31 44.9361C1299.03 44.375 1299.81 43.9844 1300.66 43.7642C1301.51 43.5369 1302.35 43.4233 1303.17 43.4233C1303.7 43.4233 1304.3 43.4872 1304.98 43.6151C1305.67 43.7358 1306.33 43.9879 1306.97 44.3714C1307.62 44.755 1308.16 45.3338 1308.58 46.108C1309.01 46.8821 1309.22 47.919 1309.22 49.2188V60H1306.71V57.7841H1306.58C1306.41 58.1392 1306.13 58.5192 1305.73 58.924C1305.33 59.3288 1304.8 59.6733 1304.14 59.9574C1303.48 60.2415 1302.67 60.3835 1301.72 60.3835ZM1302.11 58.125C1303.1 58.125 1303.94 57.9297 1304.62 57.5391C1305.31 57.1484 1305.83 56.6442 1306.18 56.0263C1306.53 55.4084 1306.71 54.7585 1306.71 54.0767V51.7756C1306.6 51.9034 1306.37 52.0206 1306 52.1271C1305.65 52.2266 1305.24 52.3153 1304.77 52.3935C1304.31 52.4645 1303.86 52.5284 1303.42 52.5852C1302.98 52.6349 1302.63 52.6776 1302.36 52.7131C1301.71 52.7983 1301.1 52.9368 1300.53 53.1286C1299.97 53.3132 1299.51 53.5937 1299.17 53.9702C1298.82 54.3395 1298.65 54.8437 1298.65 55.483C1298.65 56.3565 1298.98 57.017 1299.62 57.4645C1300.28 57.9048 1301.1 58.125 1302.11 58.125ZM1320.93 43.6364V45.767H1312.45V43.6364H1320.93ZM1314.92 39.7159H1317.43V55.3125C1317.43 56.0227 1317.54 56.5554 1317.74 56.9105C1317.96 57.2585 1318.22 57.4929 1318.55 57.6136C1318.89 57.7273 1319.24 57.7841 1319.61 57.7841C1319.88 57.7841 1320.11 57.7699 1320.29 57.7415C1320.47 57.706 1320.61 57.6776 1320.71 57.6562L1321.23 59.9148C1321.06 59.9787 1320.82 60.0426 1320.51 60.1065C1320.21 60.1776 1319.82 60.2131 1319.35 60.2131C1318.64 60.2131 1317.94 60.0604 1317.26 59.755C1316.59 59.4496 1316.03 58.9844 1315.58 58.3594C1315.14 57.7344 1314.92 56.946 1314.92 55.9943V39.7159ZM1327.58 50.1562V60H1325.06V38.1818H1327.58V46.1932H1327.79C1328.17 45.348 1328.75 44.6768 1329.51 44.1797C1330.29 43.6754 1331.32 43.4233 1332.6 43.4233C1333.72 43.4233 1334.7 43.647 1335.53 44.0945C1336.37 44.5348 1337.02 45.2131 1337.48 46.1293C1337.95 47.0384 1338.19 48.196 1338.19 49.6023V60H1335.67V49.7727C1335.67 48.473 1335.33 47.468 1334.66 46.7578C1333.99 46.0405 1333.07 45.6818 1331.88 45.6818C1331.06 45.6818 1330.32 45.8558 1329.66 46.2038C1329.02 46.5518 1328.51 47.0597 1328.13 47.7273C1327.76 48.3949 1327.58 49.2045 1327.58 50.1562ZM1342.79 60V43.6364H1345.21V46.108H1345.38C1345.68 45.2983 1346.22 44.6413 1347 44.1371C1347.79 43.6328 1348.67 43.3807 1349.65 43.3807C1349.83 43.3807 1350.06 43.3842 1350.34 43.3913C1350.62 43.3984 1350.83 43.4091 1350.97 43.4233V45.9801C1350.88 45.9588 1350.69 45.9268 1350.38 45.8842C1350.08 45.8345 1349.77 45.8097 1349.43 45.8097C1348.64 45.8097 1347.93 45.9766 1347.3 46.3104C1346.68 46.6371 1346.19 47.0916 1345.83 47.674C1345.48 48.2493 1345.3 48.9062 1345.3 49.6449V60H1342.79ZM1360.1 60.3409C1358.62 60.3409 1357.32 59.9893 1356.21 59.2862C1355.1 58.5831 1354.23 57.5994 1353.61 56.3352C1352.99 55.071 1352.68 53.5937 1352.68 51.9034C1352.68 50.1989 1352.99 48.7109 1353.61 47.4396C1354.23 46.1683 1355.1 45.1811 1356.21 44.478C1357.32 43.7749 1358.62 43.4233 1360.1 43.4233C1361.57 43.4233 1362.87 43.7749 1363.98 44.478C1365.09 45.1811 1365.96 46.1683 1366.57 47.4396C1367.2 48.7109 1367.51 50.1989 1367.51 51.9034C1367.51 53.5937 1367.2 55.071 1366.57 56.3352C1365.96 57.5994 1365.09 58.5831 1363.98 59.2862C1362.87 59.9893 1361.57 60.3409 1360.1 60.3409ZM1360.1 58.0824C1361.22 58.0824 1362.14 57.7947 1362.87 57.2195C1363.59 56.6442 1364.13 55.8878 1364.48 54.9503C1364.82 54.0128 1365 52.9972 1365 51.9034C1365 50.8097 1364.82 49.7905 1364.48 48.8459C1364.13 47.9013 1363.59 47.1378 1362.87 46.5554C1362.14 45.973 1361.22 45.6818 1360.1 45.6818C1358.98 45.6818 1358.05 45.973 1357.33 46.5554C1356.6 47.1378 1356.07 47.9013 1355.72 48.8459C1355.37 49.7905 1355.2 50.8097 1355.2 51.9034C1355.2 52.9972 1355.37 54.0128 1355.72 54.9503C1356.07 55.8878 1356.6 56.6442 1357.33 57.2195C1358.05 57.7947 1358.98 58.0824 1360.1 58.0824ZM1378 60.3409C1376.52 60.3409 1375.22 59.9893 1374.11 59.2862C1373 58.5831 1372.13 57.5994 1371.51 56.3352C1370.89 55.071 1370.58 53.5937 1370.58 51.9034C1370.58 50.1989 1370.89 48.7109 1371.51 47.4396C1372.13 46.1683 1373 45.1811 1374.11 44.478C1375.22 43.7749 1376.52 43.4233 1378 43.4233C1379.47 43.4233 1380.77 43.7749 1381.88 44.478C1382.99 45.1811 1383.86 46.1683 1384.47 47.4396C1385.1 48.7109 1385.41 50.1989 1385.41 51.9034C1385.41 53.5937 1385.1 55.071 1384.47 56.3352C1383.86 57.5994 1382.99 58.5831 1381.88 59.2862C1380.77 59.9893 1379.47 60.3409 1378 60.3409ZM1378 58.0824C1379.12 58.0824 1380.04 57.7947 1380.77 57.2195C1381.49 56.6442 1382.03 55.8878 1382.38 54.9503C1382.72 54.0128 1382.9 52.9972 1382.9 51.9034C1382.9 50.8097 1382.72 49.7905 1382.38 48.8459C1382.03 47.9013 1381.49 47.1378 1380.77 46.5554C1380.04 45.973 1379.12 45.6818 1378 45.6818C1376.88 45.6818 1375.95 45.973 1375.23 46.5554C1374.5 47.1378 1373.97 47.9013 1373.62 48.8459C1373.27 49.7905 1373.1 50.8097 1373.1 51.9034C1373.1 52.9972 1373.27 54.0128 1373.62 54.9503C1373.97 55.8878 1374.5 56.6442 1375.23 57.2195C1375.95 57.7947 1376.88 58.0824 1378 58.0824ZM1389.25 60V43.6364H1391.68V46.1932H1391.89C1392.23 45.3196 1392.78 44.6413 1393.54 44.1584C1394.3 43.6683 1395.22 43.4233 1396.28 43.4233C1397.36 43.4233 1398.26 43.6683 1398.98 44.1584C1399.7 44.6413 1400.27 45.3196 1400.67 46.1932H1400.84C1401.26 45.348 1401.89 44.6768 1402.73 44.1797C1403.56 43.6754 1404.57 43.4233 1405.74 43.4233C1407.2 43.4233 1408.4 43.8814 1409.33 44.7976C1410.26 45.7067 1410.73 47.1236 1410.73 49.0483V60H1408.21V49.0483C1408.21 47.8409 1407.88 46.978 1407.22 46.4595C1406.56 45.9411 1405.78 45.6818 1404.89 45.6818C1403.74 45.6818 1402.85 46.0298 1402.22 46.7259C1401.58 47.4148 1401.27 48.2884 1401.27 49.3466V60H1398.71V48.7926C1398.71 47.8622 1398.41 47.1129 1397.81 46.5447C1397.2 45.9695 1396.42 45.6818 1395.47 45.6818C1394.82 45.6818 1394.21 45.8558 1393.64 46.2038C1393.08 46.5518 1392.62 47.0348 1392.28 47.6527C1391.94 48.2635 1391.76 48.9702 1391.76 49.7727V60H1389.25ZM1426.92 47.3011L1424.66 47.9403C1424.51 47.5639 1424.31 47.1982 1424.03 46.843C1423.76 46.4808 1423.39 46.1825 1422.92 45.9482C1422.45 45.7138 1421.85 45.5966 1421.12 45.5966C1420.12 45.5966 1419.28 45.8274 1418.62 46.2891C1417.96 46.7436 1417.63 47.3224 1417.63 48.0256C1417.63 48.6506 1417.85 49.1442 1418.31 49.5064C1418.76 49.8686 1419.47 50.1705 1420.44 50.4119L1422.87 51.0085C1424.33 51.3636 1425.42 51.907 1426.14 52.6385C1426.86 53.3629 1427.21 54.2969 1427.21 55.4403C1427.21 56.3778 1426.94 57.2159 1426.4 57.9545C1425.87 58.6932 1425.13 59.2756 1424.17 59.7017C1423.21 60.1278 1422.09 60.3409 1420.82 60.3409C1419.15 60.3409 1417.77 59.9787 1416.68 59.2543C1415.58 58.5298 1414.89 57.4716 1414.6 56.0795L1416.99 55.483C1417.21 56.3636 1417.64 57.0241 1418.28 57.4645C1418.91 57.9048 1419.75 58.125 1420.78 58.125C1421.95 58.125 1422.88 57.8764 1423.57 57.3793C1424.27 56.875 1424.61 56.2713 1424.61 55.5682C1424.61 55 1424.42 54.5241 1424.02 54.1406C1423.62 53.75 1423.01 53.4588 1422.19 53.267L1419.46 52.6278C1417.96 52.2727 1416.86 51.7223 1416.16 50.9766C1415.46 50.2237 1415.11 49.2827 1415.11 48.1534C1415.11 47.2301 1415.37 46.4134 1415.89 45.7031C1416.41 44.9929 1417.13 44.4354 1418.03 44.0305C1418.94 43.6257 1419.97 43.4233 1421.12 43.4233C1422.74 43.4233 1424.01 43.7784 1424.93 44.4886C1425.86 45.1989 1426.52 46.1364 1426.92 47.3011Z" fill="#010101"/>
</g>
<defs>
<filter id="filter0_d_157_277" x="-398.368" y="0" width="2179.74" height="102.736" filterUnits="userSpaceOnUse" color-interpolation-filters="sRGB">
<feFlood flood-opacity="0" result="BackgroundImageFix"/>
<feColorMatrix in="SourceAlpha" type="matrix" values="0 0 0 0 0 0 0 0 0 0 0 0 0 0 0 0 0 0 127 0" result="hardAlpha"/>
<feOffset dy="4.36811"/>
<feGaussianBlur stdDeviation="2.18406"/>
<feComposite in2="hardAlpha" operator="out"/>
<feColorMatrix type="matrix" values="0 0 0 0 0 0 0 0 0 0 0 0 0 0 0 0 0 0 0.02 0"/>
<feBlend mode="normal" in2="BackgroundImageFix" result="effect1_dropShadow_157_277"/>
<feBlend mode="normal" in="SourceGraphic" in2="effect1_dropShadow_157_277" result="shape"/>
</filter>
<clipPath id="clip0_157_277">
<rect width="1407" height="36" fill="white" transform="translate(5 31)"/>
</clipPath>
</defs>
</svg>
